<svg transform="scale(1)" version="1.1" id="_x30_905_x5F_Completed_x5F_1" xmlns="http://www.w3.org/2000/svg" xmlns:xlink="http://www.w3.org/1999/xlink" x="0px" y="0px" width="500px" height="500px" viewBox="0 0 500 500" xml:space="preserve" class="show_show__wrapper__graphic__5Waiy "><title>React</title><style type="text/css">
	.st0{fill:#000001;}
	.st1{fill:#FFFFFF;}
	.st2{fill:#010003;}
	.st3{fill:#cae6ff;}
	.st4{fill:#005596;}
</style><g id="phone"><g id="colors"><path class="st0" d="M369.81,401.55c0,0-9.17,17.15-12.07,20.39c-2.88,3.23-7.09,5.28-11.83,5.22l-82.44-0.8l-53.02-0.52
			c-7.82-0.08-14.38-5.92-15.37-13.68L156.35,107.1c-0.45-3.52,0.3-6.9,1.93-9.74c2.71-4.71,9.9-17.18,9.9-17.18"></path><path class="st1" d="M371.18,392.92c1.18,9.41-6.21,17.67-15.68,17.58l-82.44-0.8l-53.02-0.52c-7.82-0.08-14.38-5.92-15.37-13.68
			L165.93,90.44c-1.2-9.41,6.18-17.71,15.67-17.61l136.17,1.32c7.83,0.08,14.41,5.94,15.38,13.7L371.18,392.92z"></path><polygon class="st2" points="166.8,97.29 156.79,111.69 157.9,120.27 168.05,107.28 		"></polygon><polygon class="st2" points="166.32,93.39 156.33,107.44 156.53,101.72 157.72,98.32 160.94,92.94 165.91,85.05 165.85,87.03 		
			"></polygon><path class="st2" d="M204.51,392.46l-10.81,10.53l0.85,5.85l10.54-10.45v0.04C205.08,398.41,204.53,392.42,204.51,392.46z"></path><path class="st2" d="M206.84,401.48l-11.31,12.43l2.05,5.02l2.64,2.65l0.04-0.09l12.16-14.36l-3.12-2.26
			C209.3,404.87,206.81,401.35,206.84,401.48z"></path><polygon class="st2" points="235.08,426.13 213.5,426 207.76,425.57 204.2,424.31 216.86,408.77 238.91,409.23 248.81,409.49 		
			"></polygon><path class="st2" d="M356.37,410.36l-10.98,16.8l3.88-0.22l4.83-2.05l4.36-3.67l8.8-15.14l-4.59,2.6
			C362.67,408.69,356.74,410.52,356.37,410.36z"></path><path class="st0" d="M220.38,83.31L220.38,83.31c0.03-2.6,2.14-4.7,4.77-4.67l51.34,0.51c2.6,0.03,4.7,2.14,4.67,4.77l0,0
			c-0.03,2.6-2.14,4.7-4.77,4.67l-51.34-0.51C222.44,88.04,220.34,85.91,220.38,83.31z"></path><circle class="st1" cx="227.17" cy="83.38" r="1.64"></circle></g><g id="line-1"><path class="st0" d="M345.91,427.7l-135.49-1.31c-8.05-0.08-14.87-6.15-15.88-14.13L155.8,107.19c-0.45-3.52,0.25-7.02,2-10.06
			c2.71-4.71,9.9-17.18,9.9-17.18l0.91,0.53c0,0-7.19,12.47-9.9,17.18c-1.64,2.85-2.29,6.11-1.87,9.41l38.73,305.06
			c0.94,7.46,7.33,13.15,14.85,13.22l135.49,1.31c4.37,0.03,8.53-1.81,11.43-5.06c2.81-3.15,11.9-20.13,11.99-20.29
			c0.13-0.26,0.46-0.35,0.71-0.22c0.27,0.13,0.35,0.46,0.21,0.7c-0.38,0.7-9.25,17.24-12.13,20.51
			C355.03,425.76,350.57,427.75,345.91,427.7z"></path><path class="st0" d="M355.48,411.02L220,409.71c-8.05-0.08-14.87-6.15-15.88-14.13L165.38,90.51c-0.59-4.64,0.85-9.29,3.96-12.8
			c3.11-3.5,7.57-5.47,12.25-5.42l136.17,1.32c8.06,0.08,14.88,6.17,15.88,14.17l38.04,305.08c0.58,4.62-0.86,9.28-3.97,12.75
			C364.62,409.09,360.16,411.07,355.48,411.02z M181.59,73.34c-4.37-0.03-8.53,1.81-11.45,5.07c-2.91,3.27-4.25,7.62-3.7,11.95
			l38.73,305.06c0.94,7.46,7.33,13.15,14.85,13.22l135.49,1.31c4.37,0.03,8.53-1.81,11.45-5.07c2.9-3.26,4.25-7.6,3.7-11.93l0,0
			L332.63,87.89c-0.93-7.49-7.32-13.19-14.85-13.24L181.59,73.34L181.59,73.34z"></path><path class="st1" d="M239.99,95.71l-15.59-0.16c-0.3,0-0.52-0.24-0.52-0.53c0-0.3,0.24-0.52,0.53-0.52L240,94.67
			c0.3,0,0.52,0.24,0.52,0.53C240.51,95.49,240.27,95.71,239.99,95.71z"></path><path class="st1" d="M279.09,95.04l-15.07-0.15c-0.3,0-0.52-0.24-0.52-0.53c0-0.3,0.24-0.52,0.53-0.52l15.07,0.15
			c0.3,0,0.52,0.24,0.52,0.53S279.38,95.04,279.09,95.04z"></path><path class="st1" d="M252.68,101c-0.29,0-0.52-0.24-0.52-0.52l-0.04-10.55c0-0.3,0.24-0.52,0.52-0.53
			c0.29-0.02,0.52,0.24,0.53,0.52l0.04,10.54C253.21,100.75,252.97,100.99,252.68,101C252.69,100.99,252.68,101,252.68,101z"></path><path class="st1" d="M255.69,98.56c-0.29,0-0.51-0.22-0.52-0.52l-0.22-5.88c-0.01-0.29,0.21-0.53,0.51-0.54
			c0.26-0.02,0.53,0.21,0.54,0.51l0.22,5.88c0.01,0.29-0.21,0.53-0.51,0.54C255.71,98.56,255.7,98.57,255.69,98.56z"></path><path class="st1" d="M258.26,96.91c-0.27-0.01-0.49-0.21-0.52-0.51l-0.16-2.9c-0.02-0.29,0.2-0.54,0.49-0.55
			c0.29-0.02,0.54,0.2,0.55,0.49l0.16,2.9c0.02,0.29-0.2,0.54-0.49,0.55C258.28,96.91,258.27,96.91,258.26,96.91z"></path><path class="st1" d="M260.89,95.91c-0.54,0-0.56-0.38-0.65-1.77c-0.01-0.28,0.19-0.53,0.47-0.55c0.27-0.03,0.53,0.18,0.56,0.46
			l0.13,1.28c0.02,0.15-0.03,0.29-0.12,0.42C261.18,95.85,261.03,95.91,260.89,95.91z"></path><path class="st1" d="M249.57,98.51c-0.29,0-0.51-0.22-0.52-0.52l-0.22-6.03c-0.01-0.29,0.21-0.53,0.51-0.54
			c0.29-0.01,0.53,0.21,0.54,0.51l0.22,6.03c0.01,0.29-0.21,0.53-0.51,0.54C249.59,98.51,249.58,98.49,249.57,98.51z"></path><path class="st1" d="M246.74,97.08c-0.27-0.01-0.49-0.21-0.52-0.51l-0.16-2.99c-0.02-0.29,0.2-0.54,0.49-0.55
			c0.27,0,0.54,0.2,0.55,0.49l0.16,2.99c0.02,0.29-0.2,0.54-0.49,0.55C246.77,97.09,246.75,97.08,246.74,97.08z"></path><path class="st1" d="M243.77,96.31c-0.3,0-0.52-0.24-0.52-0.53l0.01-1.32c0-0.3,0.24-0.52,0.53-0.52s0.52,0.24,0.52,0.53
			l-0.01,1.32C244.3,96.07,244.06,96.32,243.77,96.31z"></path></g></g><g id="screen"><ellipse class="st3" transform="matrix(0.9915 -0.1301 0.1301 0.9915 -19.1188 27.6294)" cx="201.96" cy="160.18" rx="11.75" ry="16.25"></ellipse><ellipse class="st3" transform="matrix(0.9915 -0.1301 0.1301 0.9915 -25.1595 29.1381)" cx="210.49" cy="207.18" rx="11.75" ry="16.25"></ellipse><ellipse class="st3" transform="matrix(0.9915 -0.1301 0.1301 0.9915 -31.6674 30.4938)" cx="217.62" cy="257.68" rx="11.75" ry="16.25"></ellipse><ellipse class="st3" transform="matrix(0.9915 -0.1301 0.1301 0.9915 -38.1768 31.8251)" cx="224.55" cy="308.18" rx="11.75" ry="16.25"></ellipse><ellipse class="st4" transform="matrix(0.9915 -0.1301 0.1301 0.9915 -44.9624 40.047)" cx="284.11" cy="364.24" rx="17.71" ry="24.49"></ellipse><path class="st4" d="M282.94,163.59c-0.02,0-0.04,0-0.05,0c-0.27-0.03-0.47-0.27-0.44-0.55c0.08-0.82,0.17-1.71,0.31-2.62
		l1.71-14.29c-3.16,0.97-5.94,3.03-8.64,5.02c-0.59,0.44-1.18,0.87-1.77,1.29c-3.05,2.19-7.64,5.01-12.47,4.31
		c-0.53-0.08-1.05-0.19-1.57-0.31c-0.71-0.16-1.38-0.31-2.06-0.36c-1.11-0.08-2.26,0.13-3.36,0.33l-9.74,1.77
		c-0.17,0.04-0.36-0.03-0.47-0.17c-0.12-0.14-0.15-0.33-0.09-0.49c0.2-0.56,0.17-1.21-0.08-1.75l-4.55,5.09
		c-0.15,0.16-0.38,0.21-0.57,0.12c-0.2-0.09-0.32-0.29-0.3-0.51c0.45-4.47,1.31-8.99,2.2-13.4c-5.36,5.83-12.76,9.51-19.34,12.79
		c-0.25,0.12-0.55,0.02-0.67-0.23c-0.12-0.25-0.02-0.55,0.23-0.67c7.03-3.5,14.99-7.46,20.27-13.98c0.15-0.18,0.4-0.24,0.6-0.14
		c0.21,0.1,0.32,0.33,0.28,0.55c-0.91,4.46-1.84,9.07-2.39,13.62l3.95-4.42c0.1-0.11,0.25-0.16,0.38-0.17
		c0.15,0,0.28,0.07,0.38,0.18c0.56,0.68,0.83,1.58,0.75,2.45l9-1.64c1.17-0.21,2.37-0.43,3.61-0.35c0.76,0.05,1.5,0.22,2.21,0.38
		c0.49,0.11,0.99,0.23,1.49,0.3c4.47,0.65,8.84-2.05,11.75-4.13c0.58-0.42,1.17-0.85,1.75-1.28c2.97-2.2,6.05-4.48,9.7-5.39
		c0.16-0.04,0.33,0,0.45,0.11c0.12,0.11,0.18,0.27,0.17,0.43l-1.23,10.33c0.06-0.1,0.13-0.21,0.2-0.31
		c1.56-2.25,4.86-3.64,7.29-2.12c0.33,0.21,0.63,0.46,0.91,0.7c0.38,0.32,0.74,0.63,1.15,0.8c0.94,0.39,2.06,0.08,3.15-0.22
		c7.62-2.09,15.47-2.78,23.33-2.06c0.27,0.03,0.48,0.27,0.45,0.54c-0.02,0.28-0.27,0.48-0.54,0.45c-7.74-0.71-15.47-0.03-22.97,2.03
		c-1.2,0.33-2.55,0.7-3.8,0.17c-0.55-0.23-0.99-0.6-1.41-0.96c-0.27-0.23-0.52-0.44-0.8-0.62c-1.92-1.2-4.66,0.01-5.93,1.84
		c-0.9,1.3-1.33,2.84-1.58,4.4l-0.32,2.64C283.4,163.41,283.19,163.59,282.94,163.59z"></path><path class="st2" d="M182.26,109.81c-4.05,0-8.11-1.91-10.65-3.39c-0.24-0.14-0.32-0.45-0.18-0.68c0.14-0.24,0.45-0.32,0.68-0.18
		c3.62,2.11,10.44,5.14,15.48,1.7c3.46-2.36,4.55-6.79,5.61-11.08c0.23-0.93,0.46-1.85,0.7-2.74c0.46-1.66,1.13-3.54,2.56-4.81
		c2.42-2.16,5.82-1.8,9.12-1.46c3.29,0.34,6.41,0.67,8.4-1.42c2.36-2.48,1.28-6.61,0.08-9.93c-0.09-0.26,0.04-0.55,0.3-0.64
		c0.26-0.09,0.55,0.04,0.64,0.3c1.3,3.59,2.44,8.08-0.29,10.96c-2.32,2.45-5.83,2.08-9.23,1.73c-3.22-0.33-6.26-0.65-8.35,1.21
		c-1.23,1.1-1.83,2.81-2.26,4.33c-0.25,0.88-0.47,1.8-0.7,2.71c-1.1,4.47-2.24,9.08-6.01,11.66
		C186.32,109.33,184.29,109.81,182.26,109.81z"></path><path class="st2" d="M201.16,133.58c-0.69,0-1.37-0.06-1.99-0.12c-9.34-0.96-18.26-4.42-25.81-10c-0.22-0.16-0.27-0.48-0.1-0.7
		c0.17-0.22,0.48-0.27,0.7-0.1c7.4,5.48,16.16,8.87,25.31,9.81c1.21,0.13,2.61,0.23,3.9-0.12c3.81-1.03,5.64-5.82,5.2-9.85
		c-0.28-2.62-1.23-5.17-2.15-7.64c-0.55-1.48-1.12-3-1.55-4.55c-1.45-5.22-0.65-9.9,2.16-12.54c1.4-1.32,3.18-2.05,4.9-2.76
		c0.61-0.25,1.22-0.5,1.81-0.78c1.56-0.73,4.23-2.34,4.46-4.92c0.03-0.28,0.27-0.47,0.54-0.45c0.27,0.03,0.48,0.27,0.45,0.54
		c-0.29,3.07-3.28,4.91-5.04,5.73c-0.61,0.28-1.23,0.54-1.86,0.8c-1.71,0.71-3.33,1.37-4.6,2.56c-2.53,2.38-3.23,6.69-1.88,11.54
		c0.42,1.51,0.98,3.01,1.52,4.47c0.94,2.52,1.91,5.13,2.21,7.88c0.48,4.39-1.44,9.72-5.93,10.93
		C202.67,133.52,201.91,133.58,201.16,133.58z"></path><path class="st2" d="M323.96,144.54c-1.58,0-3.1-0.41-4.39-1.21c-1.59-0.99-2.81-2.44-3.98-3.84c-1.29-1.54-2.51-2.99-4.17-3.86
		c-0.87-0.45-1.81-0.72-2.81-1.01c-1.13-0.32-2.3-0.66-3.36-1.29c-2.64-1.58-4.28-4.97-4.39-9.07c-0.13-4.98,1.62-9.77,3.32-14.4
		c1.71-4.67,3.48-9.49,3.23-14.41c-0.35-6.95-5.12-13.55-11.61-16.06c-0.26-0.1-0.39-0.39-0.29-0.65c0.1-0.26,0.39-0.39,0.65-0.29
		c6.84,2.65,11.88,9.61,12.24,16.94c0.26,5.13-1.55,10.05-3.29,14.81c-1.66,4.54-3.38,9.23-3.26,14.02c0.1,3.76,1.56,6.83,3.9,8.23
		c0.94,0.56,2,0.86,3.12,1.19c1,0.29,2.04,0.58,3,1.09c1.84,0.96,3.18,2.56,4.48,4.1c1.18,1.4,2.29,2.73,3.75,3.63
		c1.81,1.12,4.15,1.36,6.42,0.66c2.27-0.7,4.07-2.22,4.93-4.16c0.11-0.25,0.41-0.36,0.66-0.25c0.25,0.11,0.37,0.41,0.25,0.66
		c-0.98,2.21-3.01,3.93-5.55,4.71C325.86,144.4,324.9,144.54,323.96,144.54z"></path><path class="st2" d="M323.5,136.34c-0.69,0-1.38-0.15-2.04-0.51c-1.34-0.73-2.05-2.05-2.73-3.33c-0.51-0.95-0.99-1.86-1.71-2.52
		c-0.44-0.41-0.97-0.72-1.53-1.05c-0.4-0.23-0.81-0.48-1.2-0.76c-3.56-2.62-3.77-7.84-2.16-11.43c1.67-3.73,4.92-6.43,8.09-8.89
		l0.55-0.42c2.92-2.24,5.93-4.56,7.8-7.68c0.14-0.24,0.45-0.31,0.69-0.17c0.24,0.14,0.31,0.45,0.17,0.69
		c-1.97,3.29-5.06,5.66-8.05,7.96l-0.55,0.42c-3.08,2.37-6.21,4.99-7.79,8.5c-1.45,3.23-1.3,7.9,1.84,10.21
		c0.35,0.25,0.72,0.47,1.11,0.71c0.58,0.34,1.18,0.69,1.7,1.17c0.84,0.78,1.39,1.8,1.91,2.78c0.64,1.2,1.25,2.34,2.32,2.92
		c2.25,1.22,5.09-0.76,6.59-2.05c2.05-1.76,4.54-3.91,7.37-3.35c0.27,0.05,0.45,0.32,0.39,0.59c-0.05,0.27-0.31,0.45-0.59,0.39
		c-2.35-0.46-4.54,1.43-6.48,3.1C327.64,134.98,325.55,136.34,323.5,136.34z"></path><path class="st2" d="M189.83,257.28c-0.03,0-0.05,0-0.08-0.01c-0.27-0.04-0.46-0.3-0.42-0.57c0.56-3.56,2.4-6.71,4.18-9.75
		c1.45-2.48,2.95-5.04,3.72-7.78c1.01-3.6,0.73-7.63-0.77-11.05c-1.11-2.53-2.87-4.79-4.58-6.97c-1.92-2.46-3.9-5-5.02-7.98
		c-0.1-0.26,0.03-0.55,0.29-0.64c0.26-0.1,0.55,0.03,0.64,0.29c1.07,2.84,3,5.32,4.87,7.71c1.74,2.23,3.54,4.54,4.7,7.18
		c1.62,3.69,1.91,7.85,0.82,11.73c-0.81,2.87-2.34,5.48-3.82,8.01c-1.81,3.1-3.53,6.03-4.06,9.4
		C190.28,257.1,190.07,257.28,189.83,257.28z"></path><path class="st2" d="M198.26,315.41C198.26,315.41,198.25,315.41,198.26,315.41c-0.28,0-0.5-0.23-0.5-0.51
		c0.08-4.99,2.47-9.64,4.79-14.13c2.82-5.48,5.49-10.66,4.14-16.22c-0.63-2.58-2.05-4.81-3.57-7.16c-1.32-2.05-2.68-4.17-3.44-6.54
		c-2.14-6.6,0.65-13.4,3.35-19.98c2.84-6.93,5.52-13.47,2.96-19.8c-1.31-3.24-3.9-5.83-6.4-8.34c-0.46-0.46-0.91-0.91-1.36-1.37
		c-6.85-7.03-12.33-15.6-15.83-24.78c-0.1-0.26,0.03-0.55,0.29-0.65c0.26-0.1,0.55,0.03,0.65,0.29c3.45,9.05,8.85,17.5,15.61,24.43
		c0.44,0.46,0.9,0.91,1.35,1.36c2.57,2.58,5.23,5.24,6.62,8.67c2.71,6.7-0.17,13.74-2.96,20.55c-2.63,6.41-5.34,13.03-3.32,19.29
		c0.73,2.24,2.05,4.31,3.33,6.31c1.49,2.32,3.03,4.72,3.7,7.46c1.44,5.93-1.44,11.51-4.22,16.92c-2.26,4.4-4.6,8.94-4.68,13.69
		C198.75,315.2,198.53,315.41,198.26,315.41z"></path><path class="st2" d="M273.62,405.46c-0.01,0-0.02,0-0.03,0c-0.28-0.02-0.49-0.25-0.47-0.53c0.41-6.51-4.36-12.05-8.96-15.07
		c-3.95-2.59-8.52-4.21-12.94-5.78c-1.44-0.51-2.89-1.02-4.31-1.57c-6.2-2.37-9.55-5.4-10.24-9.26c-0.35-1.97,0.04-4.01,0.43-5.98
		c0.51-2.61,0.99-5.08-0.28-7.13c-0.94-1.51-2.64-2.39-4.31-3.17c-2.5-1.16-5.14-2.25-7.69-3.31c-8.74-3.62-17.79-7.37-23.73-14.78
		c-0.17-0.21-0.14-0.53,0.08-0.7c0.21-0.17,0.53-0.14,0.7,0.08c5.78,7.21,14.7,10.91,23.33,14.48c2.56,1.06,5.2,2.16,7.72,3.33
		c1.81,0.84,3.66,1.8,4.74,3.55c1.48,2.39,0.94,5.17,0.41,7.85c-0.37,1.88-0.75,3.83-0.43,5.61c0.63,3.49,3.77,6.27,9.61,8.5
		c1.42,0.54,2.85,1.05,4.29,1.56c4.48,1.59,9.11,3.23,13.16,5.89c4.84,3.17,9.85,9.04,9.41,15.97
		C274.1,405.25,273.88,405.46,273.62,405.46z"></path><path class="st2" d="M220.66,407.39c-0.03,0-0.07,0-0.1-0.01c-0.27-0.06-0.44-0.32-0.39-0.59c0.25-1.17,1.27-2.08,2.96-2.64
		c3.43-1.15,7.09-0.86,10.63-0.57c1.31,0.1,2.67,0.21,3.99,0.24c4.57,0.1,10.09-1.29,11.9-5.54c1.77-4.16-1.05-8.99-4.68-11.07
		c-4.17-2.39-9.25-2.24-13.21-1.85c-1.11,0.11-2.22,0.25-3.33,0.38c-3.46,0.43-7.05,0.87-10.59,0.46c-4.25-0.5-9.52-2.71-11.55-7.44
		c-0.11-0.25,0.01-0.55,0.26-0.66c0.25-0.11,0.55,0.01,0.66,0.26c1.86,4.34,6.77,6.38,10.75,6.84c3.42,0.4,6.94-0.04,10.35-0.46
		c1.12-0.14,2.24-0.28,3.36-0.39c4.11-0.41,9.39-0.55,13.81,1.98c4,2.29,7.09,7.66,5.1,12.33c-2,4.71-7.96,6.26-12.84,6.15
		c-1.35-0.03-2.72-0.14-4.05-0.25c-3.44-0.27-7-0.56-10.24,0.53c-0.93,0.31-2.08,0.89-2.29,1.9
		C221.1,407.23,220.9,407.39,220.66,407.39z"></path><path class="st2" d="M336.9,405.65c-0.1,0-0.2-0.03-0.29-0.09c-3.25-2.31-10.62-8.46-8.85-15.71c0.87-3.59,3.68-6.12,6.4-8.58
		c0.59-0.54,1.18-1.07,1.75-1.61c7.35-7.02,12.27-19.54,7.47-29.89c-0.86-1.86-2.02-3.62-3.14-5.32c-1.17-1.77-2.37-3.61-3.27-5.58
		c-2.88-6.32-2.43-13.93,1.17-19.87c3.6-5.94,10.14-9.86,17.08-10.23c0.28-0.03,0.51,0.2,0.53,0.47c0.01,0.28-0.2,0.51-0.47,0.53
		c-6.61,0.35-12.84,4.09-16.27,9.75c-3.43,5.66-3.86,12.92-1.11,18.94c0.87,1.91,2.05,3.71,3.2,5.45c1.14,1.73,2.32,3.53,3.21,5.45
		c4.48,9.66,1.32,22.42-7.69,31.04c-0.57,0.55-1.17,1.09-1.77,1.63c-2.6,2.35-5.3,4.79-6.1,8.08c-1.62,6.66,5.38,12.47,8.46,14.66
		c0.23,0.16,0.28,0.47,0.12,0.7C337.21,405.58,337.06,405.65,336.9,405.65z"></path><path class="st2" d="M364.74,362.41c-0.03,0-0.06,0-0.09-0.01c-3.67-0.63-6.19-3.69-7.65-6.14c-0.72-1.2-1.34-2.47-1.94-3.71
		c-0.79-1.62-1.61-3.3-2.65-4.79c-0.75-1.07-1.63-2.08-2.48-3.06c-0.9-1.03-1.83-2.09-2.62-3.25c-3.33-4.87-4.08-11.31-1.95-16.81
		c2.13-5.5,7.03-9.75,12.77-11.1c0.28-0.06,0.54,0.1,0.6,0.37c0.06,0.27-0.1,0.54-0.37,0.6c-5.43,1.27-10.05,5.29-12.07,10.48
		c-2.02,5.2-1.31,11.28,1.84,15.88c0.76,1.11,1.67,2.15,2.55,3.16c0.87,1,1.77,2.03,2.55,3.15c1.08,1.55,1.92,3.27,2.73,4.93
		c0.59,1.21,1.2,2.46,1.9,3.63c1.36,2.27,3.67,5.1,6.96,5.67c0.27,0.05,0.46,0.31,0.41,0.58
		C365.19,362.24,364.98,362.41,364.74,362.41z"></path><path class="st3" d="M358.77,404.39c-4.55,0-9.29-1.39-12.1-5.3c-1.28-1.79-2.12-4.09-2.56-7.05c-0.53-3.53-0.62-8.74,1.91-13.54
		c2.32-4.4,6.52-7.43,10.97-7.9c1.4-0.15,4.03-0.14,5.9,1.61c1.42,1.33,2.14,3.44,2.15,6.28c0,0.64-0.02,1.29-0.05,1.93
		c-0.06,1.52-0.12,2.96,0.18,4.37c0.38,1.78,1.69,3.8,3.64,4.05c0.27,0.03,0.47,0.28,0.43,0.56s-0.29,0.47-0.56,0.43
		c-2.45-0.3-4.02-2.64-4.5-4.83c-0.33-1.54-0.27-3.11-0.2-4.62c0.03-0.63,0.05-1.26,0.05-1.89c-0.01-2.56-0.62-4.42-1.83-5.55
		c-1.15-1.08-3.02-1.57-5.11-1.35c-4.12,0.44-8.03,3.27-10.19,7.38c-2.4,4.56-2.31,9.55-1.8,12.93c0.42,2.79,1.2,4.96,2.38,6.61
		c3.53,4.92,10.69,5.46,15.76,4.43c0.27-0.06,0.53,0.12,0.59,0.39c0.05,0.27-0.12,0.53-0.39,0.59
		C361.98,404.21,360.39,404.39,358.77,404.39z"></path><path class="st2" d="M345.24,244.79c-5,0-10.13-3.61-12.19-8.83c-1.94-4.92-1.51-10.92,1.21-16.92c0.46-1.01,0.98-2.03,1.48-3.02
		c1.67-3.27,3.39-6.65,3.1-10.21c-0.36-4.43-3.54-7.73-6.9-11.23c-3.25-3.38-6.61-6.88-7.2-11.49c-0.38-3.02,0.53-5.99,1.48-8.5
		c2.28-6.04,5.53-11.62,9.66-16.59c0.18-0.21,0.49-0.24,0.71-0.06c0.21,0.18,0.24,0.49,0.06,0.7c-4.06,4.88-7.26,10.36-9.49,16.3
		c-0.9,2.4-1.78,5.22-1.42,8.02c0.54,4.29,3.79,7.66,6.93,10.93c3.34,3.47,6.79,7.06,7.18,11.85c0.31,3.84-1.48,7.35-3.21,10.75
		c-0.5,0.98-1.01,1.99-1.46,2.98c-1.51,3.33-3.67,9.85-1.19,16.14c2.12,5.39,7.74,8.93,12.77,8.08c0.27-0.04,0.53,0.14,0.58,0.41
		c0.05,0.27-0.14,0.53-0.41,0.58C346.36,244.74,345.8,244.79,345.24,244.79z"></path><path class="st2" d="M344.93,193.17c-0.16,0-0.32-0.08-0.42-0.23c-1.33-2.04-3.73-3.11-6.05-4.14l-0.44-0.19
		c-2.57-1.15-5.33-2.7-6.37-5.43c-0.95-2.51-0.14-5.25,0.77-7.6c1.76-4.52,4.09-8.82,6.93-12.76c0.16-0.23,0.48-0.27,0.7-0.11
		c0.22,0.16,0.28,0.47,0.11,0.7c-2.79,3.87-5.08,8.09-6.81,12.54c-0.85,2.17-1.6,4.69-0.77,6.89c0.9,2.39,3.46,3.8,5.84,4.87
		l0.43,0.19c2.46,1.09,5,2.23,6.48,4.51c0.15,0.23,0.08,0.54-0.15,0.69C345.11,193.15,345.02,193.17,344.93,193.17z"></path><path class="st2" d="M354.44,294.05c-0.18,0-0.36-0.1-0.45-0.28c-0.94-1.9-2.96-3.35-5.4-3.87c-1.99-0.43-4.29-0.29-7.02,0.41
		c-0.54,0.14-1.09,0.29-1.63,0.45c-1.39,0.4-2.82,0.81-4.3,0.95c-2.43,0.23-4.63-0.4-6.01-1.74c-1.9-1.86-2.36-5.04-1.22-8.51
		c1.92-5.85,6.62-10.03,11.17-14.08c3.68-3.27,7.49-6.65,9.81-10.9c0.13-0.24,0.44-0.33,0.68-0.2c0.24,0.13,0.33,0.44,0.2,0.68
		c-2.41,4.4-6.28,7.84-10.02,11.17c-4.66,4.14-9.05,8.05-10.89,13.64c-0.79,2.4-0.94,5.62,0.97,7.48c1.17,1.14,3.07,1.68,5.22,1.46
		c1.39-0.13,2.78-0.53,4.12-0.92c0.55-0.16,1.1-0.32,1.65-0.46c2.88-0.74,5.33-0.88,7.47-0.42c2.74,0.59,5.01,2.23,6.09,4.4
		c0.12,0.25,0.02,0.55-0.23,0.67C354.59,294.03,354.51,294.05,354.44,294.05z"></path><path class="st4" d="M204.03,165.89c-0.25,0-0.5-0.1-0.68-0.27l-6.97-6.52c-0.4-0.38-0.42-1.01-0.05-1.41
		c0.38-0.4,1.01-0.42,1.41-0.05l6.01,5.63l9.69-18.42c0.26-0.49,0.86-0.68,1.35-0.42c0.49,0.26,0.68,0.86,0.42,1.35l-10.3,19.58
		c-0.15,0.28-0.41,0.47-0.72,0.52C204.14,165.88,204.08,165.89,204.03,165.89z"></path><path class="st4" d="M291.47,210.59c-0.02,0-0.04,0-0.05,0c-0.27-0.03-0.47-0.27-0.44-0.55c0.08-0.83,0.17-1.72,0.32-2.64
		l1.7-14.27c-3.16,0.97-5.94,3.03-8.64,5.02c-0.59,0.44-1.18,0.87-1.77,1.29c-3.05,2.19-7.64,5.01-12.47,4.31
		c-0.53-0.08-1.05-0.19-1.57-0.31c-0.71-0.16-1.38-0.31-2.06-0.36c-1.11-0.08-2.26,0.13-3.36,0.33l-9.74,1.77
		c-0.18,0.04-0.36-0.03-0.47-0.17c-0.12-0.14-0.15-0.33-0.09-0.49c0.2-0.56,0.17-1.21-0.08-1.75l-4.55,5.09
		c-0.15,0.16-0.38,0.21-0.57,0.12c-0.2-0.09-0.32-0.29-0.3-0.51c0.45-4.47,1.31-8.99,2.2-13.4c-5.36,5.83-12.76,9.51-19.34,12.79
		c-0.25,0.12-0.55,0.02-0.67-0.23c-0.12-0.25-0.02-0.55,0.23-0.67c7.03-3.5,14.99-7.46,20.27-13.98c0.15-0.18,0.4-0.24,0.6-0.14
		c0.21,0.1,0.32,0.33,0.28,0.55c-0.91,4.46-1.84,9.07-2.39,13.62l3.95-4.42c0.1-0.11,0.24-0.16,0.38-0.17
		c0.14,0,0.28,0.07,0.38,0.18c0.56,0.68,0.83,1.58,0.75,2.45l9-1.64c1.17-0.21,2.37-0.43,3.61-0.35c0.76,0.05,1.5,0.22,2.21,0.38
		c0.5,0.11,0.99,0.23,1.49,0.3c4.47,0.65,8.84-2.05,11.75-4.13c0.59-0.42,1.17-0.85,1.75-1.29c2.97-2.2,6.05-4.48,9.7-5.39
		c0.16-0.04,0.33,0,0.45,0.11c0.12,0.11,0.18,0.27,0.17,0.43l-1.23,10.33c0.06-0.1,0.13-0.2,0.2-0.31c1.56-2.25,4.86-3.64,7.29-2.12
		c0.33,0.21,0.63,0.46,0.91,0.7c0.38,0.32,0.74,0.63,1.15,0.8c0.94,0.39,2.06,0.08,3.16-0.22c7.62-2.09,15.46-2.78,23.33-2.06
		c0.27,0.03,0.48,0.27,0.45,0.54c-0.02,0.28-0.27,0.48-0.54,0.45c-7.74-0.71-15.47-0.03-22.97,2.03c-1.2,0.33-2.56,0.7-3.81,0.17
		c-0.55-0.23-0.99-0.6-1.41-0.96c-0.27-0.23-0.53-0.44-0.8-0.62c-1.91-1.2-4.66,0.01-5.93,1.84c-0.89,1.29-1.32,2.83-1.58,4.38
		l-0.32,2.66C291.93,210.41,291.72,210.59,291.47,210.59z"></path><path class="st4" d="M212.56,212.89c-0.25,0-0.5-0.1-0.68-0.27l-6.97-6.52c-0.4-0.38-0.42-1.01-0.05-1.41
		c0.38-0.4,1.01-0.42,1.41-0.05l6.01,5.63l9.69-18.42c0.26-0.49,0.86-0.68,1.35-0.42c0.49,0.26,0.68,0.86,0.42,1.35l-10.3,19.58
		c-0.15,0.28-0.41,0.47-0.72,0.52C212.67,212.88,212.61,212.89,212.56,212.89z"></path><path class="st4" d="M298.6,261.09c-0.02,0-0.04,0-0.05,0c-0.27-0.03-0.47-0.27-0.44-0.55c0.08-0.82,0.17-1.71,0.31-2.62
		l1.71-14.29c-3.16,0.97-5.94,3.03-8.64,5.02c-0.59,0.44-1.18,0.87-1.77,1.29c-3.04,2.19-7.65,5.01-12.47,4.31
		c-0.53-0.08-1.05-0.2-1.57-0.31c-0.71-0.16-1.37-0.31-2.06-0.36c-1.11-0.08-2.26,0.13-3.36,0.33l-9.74,1.77
		c-0.18,0.03-0.36-0.03-0.47-0.17c-0.12-0.14-0.15-0.33-0.09-0.49c0.21-0.56,0.17-1.21-0.08-1.75l-4.55,5.09
		c-0.15,0.16-0.38,0.21-0.58,0.12c-0.2-0.09-0.32-0.29-0.29-0.51c0.45-4.48,1.31-8.99,2.2-13.4c-5.36,5.83-12.76,9.51-19.34,12.79
		c-0.25,0.13-0.55,0.02-0.67-0.22c-0.12-0.25-0.02-0.55,0.23-0.67c7.03-3.5,14.99-7.46,20.27-13.98c0.15-0.18,0.39-0.24,0.6-0.14
		c0.21,0.1,0.32,0.33,0.28,0.55c-0.91,4.46-1.84,9.06-2.39,13.62l3.95-4.42c0.1-0.11,0.27-0.17,0.38-0.17
		c0.15,0,0.28,0.07,0.38,0.18c0.57,0.68,0.83,1.58,0.75,2.45l9-1.64c1.17-0.21,2.38-0.43,3.61-0.34c0.76,0.05,1.5,0.22,2.21,0.38
		c0.5,0.11,0.99,0.23,1.49,0.3c4.47,0.65,8.84-2.04,11.75-4.13c0.59-0.42,1.17-0.85,1.75-1.29c2.97-2.2,6.05-4.48,9.7-5.39
		c0.16-0.04,0.33,0,0.45,0.11c0.12,0.11,0.18,0.27,0.17,0.43l-1.23,10.33c0.07-0.1,0.13-0.21,0.2-0.31
		c1.56-2.25,4.86-3.64,7.29-2.12c0.33,0.21,0.63,0.46,0.92,0.7c0.38,0.32,0.74,0.63,1.15,0.8c0.93,0.39,2.06,0.08,3.15-0.22
		c7.62-2.09,15.47-2.78,23.33-2.06c0.27,0.03,0.48,0.27,0.45,0.54c-0.02,0.28-0.27,0.47-0.54,0.45c-7.74-0.71-15.47-0.03-22.97,2.03
		c-1.2,0.33-2.55,0.7-3.8,0.17c-0.55-0.23-0.99-0.6-1.41-0.96c-0.27-0.23-0.53-0.44-0.8-0.62c-1.91-1.2-4.66,0-5.93,1.84
		c-0.9,1.3-1.33,2.84-1.58,4.4l-0.32,2.64C299.06,260.91,298.85,261.09,298.6,261.09z"></path><path class="st4" d="M219.68,263.39c-0.25,0-0.5-0.09-0.68-0.27l-6.97-6.52c-0.4-0.38-0.42-1.01-0.05-1.41s1.01-0.42,1.41-0.05
		l6.01,5.63l9.69-18.42c0.26-0.49,0.86-0.68,1.35-0.42c0.49,0.26,0.68,0.86,0.42,1.35l-10.3,19.58c-0.15,0.28-0.41,0.47-0.72,0.52
		C219.79,263.38,219.74,263.39,219.68,263.39z"></path><path class="st4" d="M305.53,311.59c-0.02,0-0.04,0-0.05,0c-0.27-0.03-0.47-0.27-0.44-0.55c0.08-0.82,0.17-1.71,0.31-2.62
		l1.71-14.29c-3.16,0.97-5.94,3.03-8.64,5.02c-0.59,0.44-1.18,0.87-1.77,1.29c-3.04,2.19-7.65,5-12.47,4.31
		c-0.53-0.08-1.05-0.2-1.57-0.31c-0.71-0.16-1.37-0.31-2.06-0.36c-1.11-0.08-2.26,0.13-3.36,0.33l-9.74,1.77
		c-0.18,0.03-0.36-0.03-0.47-0.17c-0.12-0.14-0.15-0.33-0.09-0.49c0.21-0.56,0.17-1.21-0.08-1.75l-4.55,5.09
		c-0.15,0.16-0.38,0.21-0.58,0.12c-0.2-0.09-0.32-0.29-0.29-0.51c0.45-4.47,1.31-8.99,2.2-13.4c-5.36,5.83-12.76,9.51-19.34,12.79
		c-0.25,0.12-0.55,0.02-0.67-0.22c-0.12-0.25-0.02-0.55,0.23-0.67c7.03-3.5,14.99-7.46,20.27-13.98c0.15-0.18,0.39-0.24,0.6-0.14
		c0.21,0.1,0.32,0.33,0.28,0.55c-0.91,4.46-1.84,9.07-2.39,13.62l3.95-4.42c0.1-0.11,0.22-0.18,0.38-0.17
		c0.14,0,0.28,0.07,0.38,0.18c0.56,0.68,0.83,1.58,0.75,2.45l9-1.64c1.17-0.21,2.37-0.43,3.61-0.34c0.76,0.05,1.5,0.22,2.21,0.38
		c0.5,0.11,0.99,0.23,1.49,0.3c4.47,0.65,8.84-2.04,11.75-4.13c0.59-0.42,1.17-0.85,1.75-1.29c2.97-2.2,6.05-4.48,9.7-5.39
		c0.16-0.04,0.33,0,0.45,0.11s0.18,0.27,0.17,0.43l-1.23,10.33c0.06-0.1,0.13-0.21,0.2-0.3c1.56-2.25,4.86-3.64,7.29-2.12
		c0.33,0.21,0.63,0.46,0.92,0.7c0.38,0.32,0.74,0.63,1.15,0.8c0.93,0.39,2.06,0.08,3.15-0.22c7.62-2.09,15.47-2.78,23.33-2.06
		c0.27,0.03,0.48,0.27,0.45,0.54c-0.03,0.27-0.28,0.47-0.54,0.45c-7.75-0.71-15.48-0.03-22.97,2.03c-1.2,0.33-2.55,0.7-3.81,0.17
		c-0.55-0.23-0.99-0.6-1.41-0.96c-0.27-0.23-0.53-0.44-0.8-0.62c-1.91-1.2-4.66,0-5.93,1.84c-0.9,1.29-1.33,2.84-1.58,4.4
		l-0.32,2.64C306,311.41,305.78,311.59,305.53,311.59z"></path><path class="st4" d="M226.62,313.89c-0.25,0-0.5-0.09-0.68-0.27l-6.97-6.52c-0.4-0.38-0.42-1.01-0.05-1.41
		c0.38-0.4,1.01-0.42,1.41-0.05l6.01,5.63l9.69-18.42c0.26-0.49,0.86-0.68,1.35-0.42c0.49,0.26,0.68,0.86,0.42,1.35l-10.3,19.58
		c-0.15,0.28-0.41,0.47-0.72,0.52C226.73,313.88,226.68,313.89,226.62,313.89z"></path><path class="st3" d="M284.01,374.31c-0.25,0-0.5-0.09-0.68-0.27l-10.5-9.83c-0.4-0.38-0.42-1.01-0.05-1.41
		c0.38-0.4,1.01-0.42,1.41-0.05l9.54,8.93l14.92-28.34c0.26-0.49,0.86-0.68,1.35-0.42s0.68,0.86,0.42,1.35l-15.53,29.5
		c-0.15,0.28-0.41,0.47-0.72,0.52C284.12,374.3,284.06,374.31,284.01,374.31z"></path><path class="st2" d="M160.69,222.66c-0.19,0-0.38-0.05-0.55-0.17l-22.15-14.77c-0.31-0.21-0.48-0.57-0.44-0.94
		c0.04-0.37,0.28-0.69,0.63-0.82l11.46-4.46l-31.11-32.26c-0.38-0.4-0.37-1.03,0.03-1.41c0.4-0.38,1.03-0.37,1.41,0.03l32.15,33.34
		c0.23,0.24,0.33,0.58,0.26,0.91c-0.07,0.33-0.3,0.6-0.61,0.72l-11.07,4.3l20.55,13.7c0.46,0.31,0.58,0.93,0.28,1.39
		C161.33,222.5,161.01,222.66,160.69,222.66z"></path><path class="st2" d="M160.93,248.14c-0.02,0-0.03,0-0.05,0l-23.58-1.19c-0.33-0.02-0.63-0.19-0.8-0.47
		c-0.17-0.28-0.2-0.63-0.07-0.93l1.19-2.72l-35.76-8.77c-0.54-0.13-0.86-0.67-0.73-1.21c0.13-0.54,0.67-0.86,1.21-0.73l36.92,9.05
		c0.29,0.07,0.53,0.26,0.66,0.53s0.14,0.57,0.02,0.84l-1.09,2.48l22.13,1.12c0.55,0.03,0.98,0.5,0.95,1.05
		C161.9,247.73,161.46,248.14,160.93,248.14z"></path><path class="st2" d="M108.77,316.97c-0.23,0-0.47-0.08-0.66-0.25c-0.42-0.37-0.46-1-0.09-1.41l29.53-33.58
		c0.26-0.29,0.67-0.41,1.04-0.3c0.37,0.11,0.65,0.43,0.7,0.82l0.93,6.66l24.31-22.74c0.4-0.38,1.04-0.36,1.41,0.05
		c0.38,0.4,0.36,1.04-0.05,1.41l-25.72,24.05c-0.27,0.25-0.67,0.34-1.02,0.21c-0.35-0.12-0.6-0.43-0.66-0.8l-0.89-6.41l-28.09,31.94
		C109.32,316.85,109.05,316.97,108.77,316.97z"></path><path class="st2" d="M355.51,211.94c-0.2,0-0.41-0.06-0.58-0.19c-0.45-0.32-0.55-0.95-0.23-1.4l14.98-20.79l-7.62-0.98
		c-0.34-0.04-0.63-0.26-0.78-0.57s-0.12-0.67,0.06-0.96l20.01-31.68c0.29-0.47,0.91-0.61,1.38-0.31c0.47,0.29,0.61,0.91,0.31,1.38
		l-19.17,30.35l7.73,0.99c0.35,0.04,0.65,0.27,0.79,0.59c0.14,0.32,0.1,0.7-0.11,0.98l-15.96,22.15
		C356.12,211.8,355.82,211.94,355.51,211.94z"></path><path class="st2" d="M359.56,230.76c-0.42,0-0.8-0.26-0.95-0.67c-0.18-0.52,0.1-1.09,0.62-1.27l17.82-6.16l-3.69-3.88
		c-0.24-0.25-0.33-0.62-0.24-0.95c0.09-0.34,0.36-0.6,0.69-0.7l23.82-6.67c0.53-0.15,1.08,0.16,1.23,0.69
		c0.15,0.53-0.16,1.08-0.69,1.23l-22.21,6.22l3.62,3.8c0.24,0.25,0.33,0.6,0.25,0.93s-0.32,0.6-0.64,0.71l-19.29,6.67
		C359.77,230.74,359.66,230.76,359.56,230.76z"></path><path class="st2" d="M397.66,286.96c-0.29,0-0.58-0.13-0.78-0.37l-13.48-16.53l-1.44,6.12c-0.09,0.38-0.39,0.67-0.77,0.75
		c-0.38,0.08-0.77-0.07-1-0.38l-21.91-29.06c-0.33-0.44-0.24-1.07,0.2-1.4c0.44-0.33,1.07-0.24,1.4,0.2l20.63,27.35l1.42-6.02
		c0.09-0.37,0.38-0.66,0.75-0.75c0.37-0.08,0.76,0.05,1,0.34l14.77,18.1c0.35,0.43,0.29,1.06-0.14,1.41
		C398.11,286.89,397.88,286.96,397.66,286.96z"></path></g></svg>