<svg version="1.1" id="Layer_1" xmlns="http://www.w3.org/2000/svg" xmlns:xlink="http://www.w3.org/1999/xlink" x="0px" y="0px" viewBox="0 0 500 500" style="width: 166px;" xml:space="preserve" data-imageid="completed-task-31" imageName="Completed Task" class="illustrations_image">
<style type="text/css">
	.st0_completed-task-31{fill:#D1D3D4;}
	.st1_completed-task-31{fill:#FFFFFF;}
	.st2_completed-task-31{fill:#231F20;}
	.st3_completed-task-31{fill:#68E1FD;}
</style>
<path id="Floor_completed-task-31" class="st0_completed-task-31" d="M458,363.6H38c-0.4,0-0.7-0.3-0.7-0.7c0-0.4,0.3-0.7,0.7-0.7h420c0.4,0,0.7,0.3,0.7,0.7&#10;&#9;S458.4,363.6,458,363.6C458,363.6,458,363.6,458,363.6z"/>
<g id="Task_List_completed-task-31">
	<polygon class="st1_completed-task-31" points="423.9,390.6 169.2,390.6 207.3,93.6 462,93.6 &#9;"/>
	<path class="st2_completed-task-31" d="M423.9,391.3H169.2c-0.4,0-0.7-0.3-0.7-0.7c0,0,0,0,0-0.1l38.1-297c0-0.4,0.3-0.6,0.7-0.6H462&#10;&#9;&#9;c0.2,0,0.4,0.1,0.5,0.2c0.1,0.2,0.2,0.4,0.2,0.6l-38.1,297C424.6,391.1,424.3,391.4,423.9,391.3z M170,389.9h253.3l37.9-295.6&#10;&#9;&#9;H207.9L170,389.9z"/>
	<path class="st0_completed-task-31" d="M425,129.8H263.6c-3,0.1-5.5-2.3-5.6-5.3c0-0.3,0-0.7,0.1-1l0.4-3.3c0.5-3.6,3.5-6.2,7.1-6.3H427&#10;&#9;&#9;c3-0.1,5.5,2.3,5.6,5.3c0,0.3,0,0.7-0.1,1l-0.4,3.3C431.6,127,428.6,129.7,425,129.8z"/>
	<path class="st2_completed-task-31" d="M240.9,116.5h-14.4c-0.4,0-0.7-0.3-0.7-0.7c0-0.4,0.3-0.7,0.7-0.7h14.4c0.4,0,0.7,0.3,0.7,0.7&#10;&#9;&#9;C241.6,116.2,241.3,116.5,240.9,116.5z"/>
	<path class="st2_completed-task-31" d="M240.1,122.8h-14.4c-0.4,0-0.7-0.3-0.7-0.7c0-0.4,0.3-0.7,0.7-0.7h14.4c0.4,0,0.7,0.3,0.7,0.7&#10;&#9;&#9;C240.8,122.5,240.5,122.8,240.1,122.8z"/>
	<path class="st2_completed-task-31" d="M239.3,129.1h-14.4c-0.4,0-0.7-0.3-0.7-0.7s0.3-0.7,0.7-0.7h14.4c0.4,0,0.7,0.3,0.7,0.7&#10;&#9;&#9;S239.7,129.1,239.3,129.1z"/>
	<path class="st1_completed-task-31" d="M414.7,207.6H228.3c-9.1,0-15.5-7.4-14.3-16.4l3.1-23.9c1.2-9.1,9.4-16.4,18.5-16.4H422&#10;&#9;&#9;c9.1,0,15.5,7.4,14.3,16.4l-3.1,23.9C431.9,200.4,424,207.3,414.7,207.6z"/>
	<path class="st2_completed-task-31" d="M414.7,208.2H228.3c-4.4,0.1-8.6-1.7-11.5-5c-2.9-3.4-4.2-7.8-3.5-12.2l3.1-24c1.2-9.4,9.8-17,19.2-17H422&#10;&#9;&#9;c4.4-0.1,8.6,1.7,11.5,5c2.9,3.4,4.2,7.8,3.5,12.2l-3.1,23.9C432.7,200.6,424.1,208.2,414.7,208.2z M235.6,151.5&#10;&#9;&#9;c-9,0.2-16.5,6.9-17.8,15.8l-3.1,23.9c-0.6,4,0.6,8,3.2,11.1c2.6,3,6.5,4.6,10.4,4.5h186.4c8.7,0,16.7-7.1,17.8-15.8l3.1-24&#10;&#9;&#9;c0.6-4-0.6-8-3.2-11.1c-2.7-2.9-6.4-4.5-10.4-4.5H235.6z"/>
	
		<ellipse transform="matrix(0.7293 -0.6842 0.6842 0.7293 -54.2161 221.257)" class="st3_completed-task-31 targetColor" cx="252.5" cy="179.1" rx="21" ry="18.5" style="fill: rgb(56, 161, 186);"/>
	<path class="st1_completed-task-31" d="M266,172.9c-0.1,0.2-0.3,0.4-0.5,0.6l-16.7,14.8c-0.6,0.5-1,0.5-1.4,0l-7.2-8.6c-0.4-0.5-0.3-0.9,0.2-1.3&#10;&#9;&#9;l2.3-1.9c0.5-0.4,0.9-0.4,1.2,0c1.4,1.7,2.9,3.4,4.3,5c0.4,0.5,0.8,0.5,1.4,0l13-11.5c0.6-0.5,1-0.5,1.4,0c0.6,0.6,1.1,1.3,1.7,2&#10;&#9;&#9;c0.1,0.2,0.2,0.4,0.3,0.6L266,172.9z"/>
	<path class="st0_completed-task-31" d="M410.6,170.6H290.8c-1.2,0-2.1-0.9-2.1-2.1c0-1.2,0.9-2.1,2.1-2.1h119.8c1.2,0,2.1,0.9,2.1,2.1&#10;&#9;&#9;C412.7,169.6,411.7,170.6,410.6,170.6C410.6,170.6,410.6,170.6,410.6,170.6z"/>
	<path class="st0_completed-task-31" d="M383.5,190.8h-95.4c-1.2,0-2.1-0.9-2.1-2.1c0-1.2,0.9-2.1,2.1-2.1h95.4c1.2,0,2.1,0.9,2.1,2.1&#10;&#9;&#9;C385.6,189.8,384.7,190.8,383.5,190.8z"/>
	<path class="st1_completed-task-31" d="M406.3,273.2H219.9c-9.1,0-15.5-7.3-14.3-16.4l3.1-24c1.4-9.2,9.2-16.2,18.5-16.4h186.4&#10;&#9;&#9;c9.1,0,15.5,7.3,14.3,16.4l-3.1,24C423.4,266.1,415.6,273,406.3,273.2z"/>
	<path class="st2_completed-task-31" d="M406.3,273.9H219.9c-4.4,0.1-8.6-1.7-11.5-5c-2.9-3.4-4.2-7.8-3.5-12.2l3.1-24c1.2-9.4,9.8-17,19.2-17h186.4&#10;&#9;&#9;c4.4-0.1,8.6,1.7,11.5,5c2.9,3.4,4.2,7.8,3.5,12.2l-3.1,23.9C424.3,266.3,415.6,273.9,406.3,273.9z M227.2,217.2&#10;&#9;&#9;c-9,0.2-16.5,6.9-17.8,15.8l-3.1,24c-0.6,4,0.6,8,3.2,11c2.7,2.9,6.5,4.6,10.4,4.5h186.4c8.7,0,16.7-7.1,17.8-15.8l3.1-24&#10;&#9;&#9;c0.6-4-0.6-8-3.2-11.1c-2.6-3-6.5-4.6-10.4-4.5L227.2,217.2z"/>
	<path class="st0_completed-task-31" d="M241.6,265.2c-5.2,0.1-10.2-2.1-13.7-6c-3.5-4-5-9.3-4.2-14.6c1.4-11.2,11.7-20.3,22.9-20.3&#10;&#9;&#9;c5.2-0.1,10.2,2.1,13.7,6c3.5,4,5,9.3,4.2,14.5l0,0C263.1,256.1,252.8,265.2,241.6,265.2z M246.6,225.8c-10.5,0-20.2,8.6-21.5,19.1&#10;&#9;&#9;c-0.7,4.8,0.7,9.8,4,13.4c3.2,3.6,7.8,5.6,12.6,5.5c10.5,0,20.2-8.6,21.5-19.1l0,0c0.7-4.8-0.7-9.7-3.9-13.4&#10;&#9;&#9;C256.1,227.7,251.4,225.7,246.6,225.8L246.6,225.8z"/>
	<path class="st1_completed-task-31" d="M257.6,238.6c-0.1,0.2-0.3,0.4-0.5,0.6L240.4,254c-0.6,0.5-1,0.5-1.4,0l-7.2-8.6c-0.4-0.5-0.3-0.9,0.2-1.3&#10;&#9;&#9;l2.3-1.9c0.5-0.4,0.9-0.4,1.2,0l4.3,5c0.4,0.5,0.8,0.5,1.4,0l13-11.5c0.6-0.5,0.9-0.5,1.4,0c0.6,0.7,1.1,1.3,1.7,2&#10;&#9;&#9;c0.1,0.2,0.2,0.4,0.3,0.6L257.6,238.6z"/>
	<path class="st0_completed-task-31" d="M402.2,236.2H282.3c-1.2,0-2.1-0.9-2.1-2.1c0-1.2,0.9-2.1,2.1-2.1c0,0,0,0,0,0h119.8c1.2,0,2.1,0.9,2.1,2.1&#10;&#9;&#9;C404.3,235.3,403.3,236.2,402.2,236.2z"/>
	<path class="st0_completed-task-31" d="M375.1,256.4h-95.4c-1.2,0-2.1-0.9-2.1-2.1c0-1.2,0.9-2.1,2.1-2.1h95.4c1.2,0,2.1,0.9,2.1,2.1&#10;&#9;&#9;C377.2,255.5,376.3,256.4,375.1,256.4C375.1,256.4,375.1,256.4,375.1,256.4z"/>
	<path class="st1_completed-task-31" d="M397.8,338.9H211.5c-9.1,0-15.5-7.4-14.3-16.4l3.1-24c1.4-9.2,9.2-16.2,18.5-16.4h186.4&#10;&#9;&#9;c9.1,0,15.5,7.4,14.3,16.4l-3.1,24C415,331.7,407.2,338.7,397.8,338.9z"/>
	<path class="st2_completed-task-31" d="M397.8,339.6H211.5c-4.4,0.1-8.6-1.7-11.5-5c-2.9-3.4-4.2-7.8-3.5-12.2l3.1-24c1.2-9.4,9.8-17,19.2-17h186.4&#10;&#9;&#9;c4.4-0.1,8.6,1.7,11.5,5c2.9,3.4,4.2,7.8,3.5,12.2l-3.1,24C415.9,332,407.2,339.6,397.8,339.6z M218.8,282.8&#10;&#9;&#9;c-8.7,0-16.7,7.1-17.8,15.8l-3.1,24c-0.6,4,0.6,8,3.2,11.1c2.7,2.9,6.5,4.6,10.4,4.5h186.4c8.7,0,16.7-7.1,17.8-15.8l3.1-24&#10;&#9;&#9;c0.6-4-0.6-8-3.2-11.1c-2.7-2.9-6.5-4.6-10.4-4.5H218.8z"/>
	<path class="st0_completed-task-31" d="M233.2,330.9c-5.2,0.1-10.2-2.1-13.7-5.9c-3.5-4-5-9.3-4.2-14.5c1.4-11.2,11.7-20.3,22.9-20.3&#10;&#9;&#9;c5.2-0.1,10.2,2.1,13.7,6c3.4,4,5,9.3,4.2,14.5l0,0C254.6,321.8,244.4,330.9,233.2,330.9z M238.2,291.5c-10.5,0-20.2,8.6-21.5,19.1&#10;&#9;&#9;c-0.7,4.8,0.7,9.7,3.9,13.5c3.2,3.6,7.8,5.6,12.6,5.5c10.5,0,20.2-8.6,21.5-19.1l0,0c0.7-4.8-0.7-9.7-3.9-13.4&#10;&#9;&#9;C247.6,293.4,243,291.4,238.2,291.5z"/>
	<path class="st1_completed-task-31" d="M249.1,304.2c-0.1,0.2-0.3,0.4-0.5,0.6l-16.7,14.8c-0.6,0.5-1,0.5-1.4,0l-7.2-8.6c-0.4-0.5-0.3-0.9,0.2-1.3&#10;&#9;&#9;l2.3-1.9c0.5-0.4,0.9-0.4,1.2,0l4.3,5c0.4,0.5,0.8,0.5,1.4,0l13-11.5c0.6-0.5,1-0.5,1.4,0c0.6,0.6,1.1,1.3,1.7,2&#10;&#9;&#9;c0.1,0.2,0.2,0.4,0.3,0.5L249.1,304.2z"/>
	<path class="st0_completed-task-31" d="M393.8,301.9H273.9c-1.2,0-2.1-0.9-2.1-2.1s0.9-2.1,2.1-2.1h119.8c1.2,0,2.1,0.9,2.1,2.1&#10;&#9;&#9;S394.9,301.9,393.8,301.9z"/>
	<path class="st0_completed-task-31" d="M366.7,322.1h-95.4c-1.2,0-2.1-0.9-2.1-2.1s0.9-2.1,2.1-2.1h95.4c1.2,0,2.1,0.9,2.1,2.1&#10;&#9;&#9;S367.9,322.1,366.7,322.1L366.7,322.1z"/>
	<path class="st0_completed-task-31" d="M386.8,375.8c-0.1,0-0.3,0-0.4-0.1l-10.9-7.6c-0.2-0.1-0.3-0.4-0.3-0.6c0-0.2,0.1-0.5,0.3-0.6l12.9-7.6&#10;&#9;&#9;c0.3-0.2,0.8-0.1,1,0.2c0,0,0,0,0,0c0.2,0.3,0.1,0.7-0.2,1c0,0,0,0-0.1,0l-11.9,7l10,7c0.3,0.2,0.4,0.7,0.2,1c0,0,0,0,0,0&#10;&#9;&#9;C387.3,375.7,387,375.8,386.8,375.8z"/>
	<path class="st0_completed-task-31" d="M396.2,375.8c-0.4,0-0.7-0.3-0.7-0.7c0-0.2,0.1-0.5,0.3-0.6l11.9-7l-10-7c-0.3-0.2-0.4-0.6-0.2-0.9&#10;&#9;&#9;c0,0,0,0,0-0.1c0.2-0.3,0.6-0.4,1-0.2c0,0,0,0,0,0l10.9,7.6c0.2,0.1,0.3,0.4,0.3,0.6c0,0.2-0.1,0.5-0.4,0.6l-12.9,7.6&#10;&#9;&#9;C396.5,375.7,396.4,375.8,396.2,375.8z"/>
</g>
<g id="Character_completed-task-31">
	<path class="st3_completed-task-31 targetColor" d="M123.7,251.1c0,0,11.8,20.8,23.3,22.7c14.1,2.3,34.8-10.1,34.8-10.1l-11.7-11.4l-23.9-0.1l-13-26.6&#10;&#9;&#9;L123.7,251.1z" style="fill: rgb(56, 161, 186);"/>
	<polygon class="st1_completed-task-31" points="143.1,386.8 143.9,395.8 156.4,394.8 155.2,384 &#9;"/>
	<path class="st2_completed-task-31" d="M143.9,396.5c-0.4,0-0.7-0.3-0.7-0.6l-0.9-9c0-0.4,0.2-0.7,0.5-0.8l12.2-2.8c0.2,0,0.4,0,0.6,0.1&#10;&#9;&#9;c0.2,0.1,0.3,0.3,0.3,0.5l1.2,10.8c0,0.2,0,0.4-0.2,0.5c-0.1,0.1-0.3,0.2-0.5,0.2L143.9,396.5L143.9,396.5z M143.8,387.3l0.8,7.7&#10;&#9;&#9;l11.1-0.9l-1-9.3L143.8,387.3z"/>
	<polygon class="st1_completed-task-31" points="55.5,366.9 47.4,373.3 52,381.9 60,378.4 &#9;"/>
	<path class="st2_completed-task-31" d="M52,382.6c-0.3,0-0.5-0.1-0.6-0.4l-4.5-8.6c-0.2-0.3-0.1-0.7,0.2-0.9l8-6.4c0.2-0.1,0.4-0.2,0.6-0.1&#10;&#9;&#9;c0.2,0.1,0.4,0.2,0.5,0.4l4.5,11.5c0.1,0.4,0,0.7-0.4,0.9l-8,3.5C52.2,382.6,52.1,382.6,52,382.6z M48.3,373.5l4,7.5l6.8-3&#10;&#9;&#9;l-3.9-9.9L48.3,373.5z"/>
	<path class="st2_completed-task-31" d="M79.6,285.4l0.8,57.3l-27.9,24.2l5.8,14.3c0,0,40.8-19.6,47.1-28.4s7.3-30.2,7.3-30.2l20.9,21l8,45.5l15.9-0.9&#10;&#9;&#9;c0,0-2-33.4-2-45.8s-31.6-55-31.6-55L79.6,285.4z"/>
	<path class="st2_completed-task-31" d="M141.5,389.7c-0.3,0-0.6-0.2-0.7-0.6l-8-45.3l-19.6-19.7c-0.3,5.1-1.9,21.4-7.3,29&#10;&#9;&#9;c-6.4,8.8-45.6,27.8-47.3,28.6c-0.2,0.1-0.4,0.1-0.5,0c-0.2-0.1-0.3-0.2-0.4-0.4l-5.8-14.3c-0.1-0.3,0-0.6,0.2-0.8l27.7-24l-0.8-57&#10;&#9;&#9;c0-0.2,0.1-0.4,0.2-0.5c0.1-0.1,0.3-0.2,0.5-0.2l44.2,2c0.2,0,0.4,0.1,0.5,0.3c1.3,1.8,31.7,42.9,31.7,55.4c0,12.2,2,45.4,2,45.7&#10;&#9;&#9;c0,0.4-0.3,0.7-0.6,0.7c0,0,0,0,0,0L141.5,389.7L141.5,389.7z M112.6,321.9c0.2,0,0.4,0.1,0.5,0.2L134,343c0.1,0.1,0.2,0.2,0.2,0.4&#10;&#9;&#9;l7.9,44.9l14.6-0.8c-0.3-4.9-2-33.8-2-45.1c0-11.5-28.6-50.7-31.2-54.3l-43.2-1.9l0.8,56.5c0,0.2-0.1,0.4-0.2,0.5l-27.6,23.9&#10;&#9;&#9;l5.3,13.1c5.3-2.6,40.4-19.9,46.1-27.9c6.2-8.6,7.2-29.6,7.2-29.8c0-0.3,0.2-0.5,0.4-0.6C112.4,321.9,112.5,321.9,112.6,321.9z"/>
	<path class="st3_completed-task-31 targetColor" d="M76.7,291l1.1-28c0,0-0.5-34.7,12.3-40.9s38.2-3.5,43.2,3.5s-6.8,65.4-6.8,65.4H76.7z" style="fill: rgb(56, 161, 186);"/>
	<path class="st1_completed-task-31" d="M130.3,195.9c-0.1-3-1.4-5.7-3.5-7.8c-4.5-4.1-14.6-5.7-18.3,0.4c-1.2,0.1-2.3,0.5-3.3,1.3&#10;&#9;&#9;c-1.1,1.1-2,2.5-2.4,4.1c-2.1,5.9-0.4,12.2,1.9,18c0.7,2,1.8,3.7,3.2,5.2c3.5,3.3,8.4,1.5,12.3-0.2c2.6-1,5-2.7,6.9-4.9&#10;&#9;&#9;c2.2-2.7,3.3-7.7,3.3-11.1C130.5,199.3,130.4,197.6,130.3,195.9z"/>
	<path class="st2_completed-task-31" d="M112.8,219.6c-2,0.1-3.9-0.7-5.3-2.1c-1.5-1.5-2.7-3.4-3.4-5.5c-2.1-5.2-4.2-12-1.9-18.5&#10;&#9;&#9;c0.5-1.7,1.4-3.2,2.6-4.4c0.9-0.8,2.1-1.3,3.3-1.5c1.6-2.2,4-3.6,6.7-3.9c4.5-0.5,9,0.8,12.5,3.7c2.2,1.9,3.4,4.6,3.8,8.2l0,0&#10;&#9;&#9;c0.2,1.7,0.2,3.4,0.2,5.1c0,3.6-1.2,8.8-3.5,11.5c-1.9,2.2-4.4,4-7.1,5.1C118.5,218.4,115.6,219.6,112.8,219.6z M116.6,185.2&#10;&#9;&#9;c-0.6,0-1.1,0-1.7,0.1c-2.4,0.2-4.6,1.5-5.9,3.5c-0.1,0.2-0.3,0.3-0.6,0.3c-1,0.1-2,0.5-2.8,1.2c-1,1-1.8,2.3-2.2,3.8&#10;&#9;&#9;c-2.1,6-0.1,12.5,1.9,17.5c0.7,1.9,1.7,3.6,3.1,5c3.1,2.9,7.4,1.5,11.6-0.3c2.5-1,4.8-2.6,6.6-4.7c2-2.5,3.1-7.3,3.2-10.6&#10;&#9;&#9;c0-1.7,0-3.3-0.2-5l0,0c-0.4-3.3-1.4-5.6-3.3-7.4C123.5,186.4,120.1,185.2,116.6,185.2z"/>
	<path class="st1_completed-task-31" d="M120.9,218.3l-0.9,8.5c0,0-2,4.5-7.2,2.2c-3.1-1.3-5.1-4.3-5.3-7.6l1.7-15.2c0,0,4.4-1.5,4.8-10.5&#10;&#9;&#9;c0,0,5.3,0,13.6,0.4c0,0,1.1,14-0.2,18.1S120.9,218.3,120.9,218.3z"/>
	<path class="st2_completed-task-31" d="M115.6,230.4c-1,0-2.1-0.3-3-0.7c-3.3-1.4-5.6-4.6-5.8-8.2l1.7-15.3c0-0.3,0.2-0.5,0.5-0.6c0,0,4-1.5,4.3-9.8&#10;&#9;&#9;c0-0.4,0.3-0.7,0.7-0.7l0,0c0,0,5.4,0,13.6,0.4c0.4,0,0.6,0.3,0.7,0.6c0.1,0.6,1.1,14.2-0.3,18.4c-1.1,3.3-4.3,4.3-6.3,4.5&#10;&#9;&#9;l-0.8,7.9c0,0.1,0,0.1,0,0.2C119.8,229.1,117.8,230.3,115.6,230.4z M109.8,206.7l-1.6,14.8c0.2,3,2.1,5.7,4.9,6.9&#10;&#9;&#9;c4.2,1.8,6-1.2,6.3-1.8l0.9-8.4c0-0.4,0.3-0.6,0.7-0.6c0.2,0,4.4,0,5.6-3.6s0.4-14.5,0.2-17.2c-6.2-0.3-10.6-0.3-12.2-0.4&#10;&#9;&#9;C114.1,203.8,111,206.1,109.8,206.7L109.8,206.7z M120.1,226.8L120.1,226.8z"/>
	<path class="st1_completed-task-31" d="M112.4,206.5c-0.1-0.8-0.4-1.5-0.9-2.1c-0.5-0.5-1.1-1-1.8-1.3c-0.3-0.2-0.7-0.4-1.1-0.4c-0.3,0-0.6,0-0.8,0.1&#10;&#9;&#9;c-0.6,0.2-1.2,0.6-1.6,1.1c-0.2,0.5-0.4,1-0.3,1.6c0,0.6,0,1.2,0.1,1.7c0.6,2.4,2.9,3.8,5.3,3.3c0,0,0,0,0.1,0"/>
	<path class="st2_completed-task-31" d="M110.4,211.4c-0.9,0-1.8-0.3-2.7-0.7c-1.2-0.7-2-1.9-2.3-3.2c-0.1-0.6-0.2-1.3-0.2-1.9c0-0.6,0.1-1.3,0.4-1.9&#10;&#9;&#9;c0.4-0.7,1.1-1.2,1.9-1.5c0.3-0.1,0.7-0.2,1.1-0.2c0.5,0.1,1,0.2,1.4,0.5c0.7,0.4,1.4,0.9,1.9,1.4c0.6,0.7,0.9,1.6,1,2.5&#10;&#9;&#9;c0,0.4-0.3,0.7-0.6,0.7c0,0,0,0,0,0c-0.4,0-0.7-0.3-0.8-0.6c0-0.6-0.3-1.2-0.7-1.7c-0.5-0.5-1-0.9-1.6-1.1&#10;&#9;&#9;c-0.2-0.2-0.5-0.3-0.8-0.3c-0.2,0-0.4,0-0.6,0.1c-0.5,0.1-0.9,0.4-1.2,0.8c-0.2,0.4-0.3,0.8-0.2,1.2c0,0.5,0,1,0.1,1.6&#10;&#9;&#9;c0.5,2,2.4,3.2,4.4,2.7c0,0,0,0,0.1,0c0.4-0.1,0.8,0.1,0.8,0.5c0.1,0.4-0.1,0.8-0.5,0.8l0,0C111.2,211.3,110.8,211.4,110.4,211.4z"/>
	<path class="st2_completed-task-31" d="M120.5,222.4c-1.8-0.5-3.4-1.6-4.6-3c-1-1.1-1.4-2.6-1-4.1c1.5,1.8,3.7,2.9,6,3L120.5,222.4z"/>
	<path class="st2_completed-task-31" d="M120.5,223.1h-0.1c-2-0.5-3.7-1.6-5-3.2c-1.2-1.3-1.6-3.1-1.1-4.8c0.1-0.2,0.3-0.4,0.6-0.4&#10;&#9;&#9;c0.3,0,0.5,0.1,0.7,0.3c1.3,1.6,3.3,2.6,5.4,2.7c0.2,0,0.4,0.1,0.5,0.2c0.1,0.2,0.2,0.3,0.2,0.6l-0.4,4.1c0,0.2-0.1,0.4-0.3,0.5&#10;&#9;&#9;C120.8,223,120.7,223.1,120.5,223.1z M115.4,216.9c0.1,0.8,0.5,1.5,1,2.1c1,1.1,2.2,1.9,3.5,2.5l0.2-2.5&#10;&#9;&#9;C118.4,218.8,116.8,218.1,115.4,216.9L115.4,216.9z"/>
	<path class="st2_completed-task-31" d="M122.7,210.9c-0.7,0-1.4-0.2-2-0.4c-0.4-0.1-0.5-0.6-0.4-0.9c0.1-0.4,0.6-0.5,0.9-0.4l0,0&#10;&#9;&#9;c0.6,0.3,1.2,0.3,1.8,0.3c-0.3-1.6-0.8-3.1-1.6-4.6c-0.2-0.3,0-0.8,0.3-0.9c0,0,0,0,0,0c0.3-0.2,0.8,0,0.9,0.3&#10;&#9;&#9;c2.5,5.2,1.6,5.9,1.3,6.2C123.7,210.7,123.2,210.9,122.7,210.9z"/>
	<path class="st2_completed-task-31" d="M120.6,213.7c-0.9,0-1.7-0.2-2.4-0.7c-0.8-0.6-1.3-1.5-1.4-2.6c-0.1-0.4,0.2-0.7,0.6-0.8c0,0,0,0,0,0&#10;&#9;&#9;c0.4-0.1,0.7,0.2,0.8,0.6c0,0.6,0.4,1.2,0.9,1.6c0.6,0.4,1.4,0.5,2.1,0.4c0.4-0.1,0.7,0.2,0.8,0.6c0.1,0.4-0.2,0.7-0.6,0.8&#10;&#9;&#9;c0,0,0,0,0,0C121.1,213.7,120.9,213.7,120.6,213.7z"/>
	<path class="st2_completed-task-31" d="M119.6,203c-0.2,0-0.4-0.1-0.5-0.2c-0.2-0.3-0.6-0.5-1-0.5c-0.5,0-1.1,0.2-1.5,0.6c-0.3,0.3-0.7,0.2-1-0.1&#10;&#9;&#9;c-0.3-0.3-0.3-0.7,0-1c0,0,0,0,0,0c0.7-0.6,1.6-0.9,2.5-0.9c0.8,0,1.5,0.4,1.9,1c0.3,0.3,0.2,0.7,0,1c0,0,0,0,0,0&#10;&#9;&#9;C119.9,202.9,119.8,203,119.6,203z"/>
	<path class="st2_completed-task-31" d="M123.8,203.9c-0.1,0-0.2,0-0.3-0.1c-0.3-0.2-0.5-0.6-0.3-0.9c0.3-0.6,0.9-1.1,1.6-1.2c0.9,0,1.7,0.4,2.2,1.1&#10;&#9;&#9;c0.2,0.3,0.1,0.8-0.2,1c-0.2,0.1-0.5,0.1-0.8,0c-0.4-0.4-0.8-0.6-1-0.6s-0.5,0.4-0.5,0.4C124.4,203.7,124.1,203.9,123.8,203.9z"/>
	<polygon class="st1_completed-task-31" points="115.2,230 110.6,232.4 113.3,236.1 105.2,270.7 112.9,279.4 119.6,267.6 115.7,236.1 118.8,232.8 &#9;"/>
	<path class="st2_completed-task-31" d="M47.4,373.3l-9.4,6.4c0,0,16,27.1,20.4,20.1c1.2-1.9-6.5-17.9-6.5-17.9L47.4,373.3z"/>
	<path class="st2_completed-task-31" d="M56.5,401.7L56.5,401.7c-6.2-0.1-17.7-19.4-19-21.6c-0.2-0.3-0.1-0.7,0.2-0.9l9.4-6.4c0.3-0.2,0.8-0.1,1,0.2&#10;&#9;&#9;c0,0,0,0,0,0.1l4.5,8.6c2.3,4.9,7.6,16.6,6.3,18.6C58.5,401.1,57.5,401.7,56.5,401.7z M39,379.9c3.7,6.1,13.1,20.3,17.5,20.4&#10;&#9;&#9;c0.6,0,1.1-0.3,1.4-0.8c0.5-1.2-3-9.9-6.5-17.2l-4.2-7.9L39,379.9z"/>
	<path class="st2_completed-task-31" d="M143.8,395.8c0,0-0.3,10.5,0.7,10.6s30.6-3.9,28.4-6.1s-16.4-5.5-16.4-5.5L143.8,395.8z"/>
	<path class="st2_completed-task-31" d="M144.4,407.1L144.4,407.1c-0.6-0.1-1.5-0.3-1.2-11.3c0-0.4,0.3-0.6,0.6-0.7l12.6-1c0.1,0,0.1,0,0.2,0&#10;&#9;&#9;c1.5,0.3,14.4,3.3,16.8,5.7c0.4,0.3,0.4,0.8,0.2,1.2C172,404,145,407.1,144.4,407.1z M144.9,405.9L144.9,405.9z M144.5,396.4&#10;&#9;&#9;c-0.1,3.9,0,8.2,0.3,9.3c3.3-0.1,24.5-3.4,27.3-5.2c-2.1-1.5-10.4-3.8-15.7-5L144.5,396.4z"/>
	<path class="st2_completed-task-31" d="M127.3,287.7L127.3,287.7c-0.5,0-0.8-0.4-0.7-0.8c0,0,0,0,0,0c1.1-8.5,6.4-41.4,6.5-41.7&#10;&#9;&#9;c0-0.4,0.4-0.7,0.8-0.6s0.7,0.4,0.6,0.8c0,0,0,0,0,0.1c-0.1,0.3-5.4,33.1-6.4,41.6C128,287.4,127.7,287.7,127.3,287.7z"/>
	<circle class="st2_completed-task-31" cx="185" cy="235.7" r="41.3"/>
	<path class="st2_completed-task-31" d="M185,277.6c-23.2,0-42-18.8-42-42s18.8-42,42-42c22.3,0,40.7,17.4,41.9,39.6l0,0c1.3,23.1-16.3,43-39.4,44.3&#10;&#9;&#9;C186.6,277.6,185.8,277.6,185,277.6z M185.1,195.1c-0.8,0-1.6,0-2.4,0.1c-22.4,1.3-39.4,20.5-38.1,42.9&#10;&#9;&#9;c1.3,22.4,20.5,39.4,42.9,38.1c22.4-1.3,39.4-20.5,38.1-42.9c0,0,0,0,0,0l0,0C224.3,211.9,206.5,195.1,185.1,195.1L185.1,195.1z"/>
	<circle class="st3_completed-task-31 targetColor" cx="178.6" cy="236.1" r="41.3" style="fill: rgb(56, 161, 186);"/>
	<path class="st2_completed-task-31" d="M178.6,278c-23.2,0-41.9-18.9-41.8-42c0-23.2,18.9-41.9,42-41.8c23.2,0,41.9,18.9,41.8,42&#10;&#9;&#9;c0,22.2-17.4,40.5-39.5,41.8C180.2,278,179.4,278,178.6,278z M178.7,195.5c-0.8,0-1.6,0-2.4,0.1c-22.4,1.3-39.4,20.5-38.1,42.9&#10;&#9;&#9;s20.5,39.4,42.9,38.1c22.4-1.3,39.4-20.5,38.1-42.9C217.9,212.2,200.1,195.5,178.7,195.5z"/>
	<path class="st1_completed-task-31" d="M204.6,222.1c-0.3,0.4-0.6,0.8-0.9,1.2l-32,32c-1.1,1.1-1.9,1.1-3,0l-18-18.6c-0.8-0.6-0.9-1.7-0.3-2.5&#10;&#9;&#9;c0.1-0.2,0.3-0.3,0.5-0.4l4.5-4.1c0.6-0.7,1.7-0.8,2.4-0.2c0.1,0.1,0.2,0.2,0.3,0.3l10.7,10.9c1.1,1.1,1.9,1.1,3,0l24.8-24.7&#10;&#9;&#9;c1.1-1.1,1.9-1.1,3,0c1.4,1.4,2.8,2.8,4.2,4.2c0.3,0.4,0.6,0.8,0.9,1.2L204.6,222.1z"/>
	<path class="st1_completed-task-31" d="M138.8,259.4c0,0,8.4-1.1,9.7-1.9s4.8-6.6,6.7-7s1.5,3.8,0,5.5c-1.5,1.7,7.1-4.6,8.5-3.2c1.9,2.5,1.9,6,0,8.5&#10;&#9;&#9;c-2.4,2.9-16.6,8.5-24,8.9"/>
	<path class="st2_completed-task-31" d="M139.6,270.8c-0.4,0-0.7-0.3-0.7-0.7c0-0.4,0.3-0.7,0.7-0.7c0,0,0,0,0,0c7.1-0.4,21.2-5.9,23.5-8.6&#10;&#9;&#9;c1.7-2.2,1.7-5.3,0.1-7.6c-0.8-0.3-4.6,1.9-5.9,2.6c-2,1.1-2.4,1.4-2.8,0.8c-0.3-0.3-0.2-0.7,0.2-1.2c1-1.2,1.3-3.6,0.9-4.2&#10;&#9;&#9;c0-0.1-0.1-0.1-0.2-0.1c-0.9,0.2-2.7,2.6-4,4.1c-0.7,1-1.5,1.9-2.5,2.8c-1.4,0.9-8.6,1.9-10,2c-0.4,0-0.7-0.2-0.8-0.6&#10;&#9;&#9;s0.2-0.7,0.6-0.8c3.4-0.4,8.6-1.3,9.4-1.8c0.8-0.8,1.5-1.6,2.1-2.5c2-2.5,3.5-4.3,4.8-4.6c0.7-0.2,1.4,0.1,1.7,0.7&#10;&#9;&#9;c0.5,1.3,0.5,2.8,0,4.1c3.5-2,6.3-3.5,7.4-2.3c1.7,1.7,2.6,6.3,0,9.4S147.3,270.4,139.6,270.8L139.6,270.8z"/>
	<path class="st3_completed-task-31 targetColor" d="M93,221.9c0,0,3.6,35.9,14,36.1c12.7,0.2,34.4-0.3,34.4-0.3l4.2,13.5c0,0-33.6,8.1-47.8,1.9&#10;&#9;&#9;s-15.2-30.3-15.2-30.3L93,221.9z" style="fill: rgb(56, 161, 186);"/>
	<path class="st2_completed-task-31" d="M117.2,259.1c-5.7,0-10.6-0.2-11.9-0.8c-3.7-1.6-10.5-25.1-11.9-29.9c-0.1-0.4,0.1-0.8,0.5-0.9c0,0,0,0,0,0&#10;&#9;&#9;c0.4-0.1,0.8,0.1,0.9,0.5c0,0,0,0,0,0c3,10.6,8.7,27.9,11.1,28.9s22.6,0.6,35.4,0c0.4,0,0.7,0.3,0.8,0.7c0,0,0,0,0,0&#10;&#9;&#9;c0,0.4-0.3,0.7-0.7,0.8C139.3,258.5,127,259.1,117.2,259.1z"/>
	<path class="st2_completed-task-31" d="M112.9,275.9c-5.7,0-11.3-0.5-15.3-2.1c-13.4-5.1-15.6-23.9-15.6-24.7c0-0.4,0.2-0.8,0.6-0.8s0.8,0.2,0.8,0.6&#10;&#9;&#9;l0,0c0,0.2,2.2,18.8,14.7,23.5c12.8,4.8,41.7-0.8,42-0.8c0.4-0.1,0.8,0.2,0.8,0.6c0,0,0,0,0,0c0.1,0.4-0.2,0.8-0.6,0.8c0,0,0,0,0,0&#10;&#9;&#9;C131.3,274.8,122.1,275.7,112.9,275.9z"/>
</g>
</svg>