<svg
  width="116"
  height="120"
  viewBox="0 0 116 120"
  fill="none"
  xmlns="http://www.w3.org/2000/svg"
  class="burning-flame"
>
  <path
    class="flame-main"
    d="M63.543 109.616C72.3388 107.761 83.7114 101.106 83.7114 83.8976C83.7114 68.2373 72.8126 57.8091 64.9755 53.0175C63.2366 51.9542 61.2008 53.3525 61.2008 55.4681V60.8795C61.2008 65.1466 59.495 72.9355 54.7552 76.1752C52.3353 77.8292 49.7218 75.3537 49.4277 72.334L49.1862 69.8545C48.9055 66.9719 46.1142 65.222 43.9238 66.9795C39.9887 70.1368 35.8763 75.6656 35.8763 83.8976C35.8763 104.943 50.7584 110.204 58.1993 110.204C58.632 110.204 59.087 110.19 59.5606 110.162C60.8153 109.995 59.5606 110.455 63.543 109.616Z"
    fill="#F0B41A"
  />
  <path
    class="flame-mid"
    d="M26.3093 86.0299C26.3093 103.912 40.3764 109.442 49.0766 110.204C52.0475 109.82 49.0766 110.881 58.5064 108.945C65.4263 106.44 72.9485 100.009 72.9485 86.0299C72.9485 77.172 67.4944 71.7073 63.2216 69.149C61.9143 68.3661 60.3966 69.3517 60.2793 70.8978C59.9089 75.7994 55.3149 79.7037 52.1847 75.9768C49.419 72.6834 48.2571 67.8719 48.2571 64.7941V60.7724C48.2571 58.3479 45.8745 56.7411 43.839 57.9786C36.2706 62.5785 26.3093 72.0418 26.3093 86.0299Z"
    fill="#FBC967"
  />
  <path
    class="flame-base"
    opacity="0.8"
    d="M62.0233 109.006C77.1318 105.873 96.6667 94.63 96.6667 65.556C96.6667 39.098 77.9457 21.4796 64.4839 13.3842C61.4969 11.5878 58 13.9503 58 17.5246V26.667C58 33.8763 55.07 47.0355 46.9284 52.509C42.7717 55.3035 38.2825 51.121 37.7773 46.0194L37.3625 41.8302C36.8803 36.9601 32.0857 34.0037 28.3231 36.973C21.5638 42.3072 14.5 51.648 14.5 65.556C14.5 101.111 40.063 110 52.8443 110C53.5877 110 54.3692 109.977 55.1827 109.929C57.3378 109.648 55.1827 110.425 62.0233 109.006Z"
    fill="url(#paint0_linear_37_4)"
  />
  <path
    class="flame-tip"
    opacity="0.52"
    d="M38.6667 92.221C38.6667 105.32 48.8714 109.371 55.1827 109.929C57.3379 109.648 55.1827 110.425 62.0233 109.007C67.0432 107.172 72.5001 102.461 72.5001 92.221C72.5001 85.7325 68.5435 81.7295 65.4439 79.8555C64.4956 79.282 63.3946 80.004 63.3095 81.1365C63.0408 84.727 59.7082 87.587 57.4375 84.857C55.4312 82.4445 54.5882 78.92 54.5882 76.6655V73.7195C54.5882 71.9435 52.8598 70.7665 51.3832 71.673C45.8929 75.0425 38.6667 81.9745 38.6667 92.221Z"
    fill="#F08D1A"
  />
  <defs>
    <linearGradient
      id="paint0_linear_37_4"
      x1="86"
      y1="1.5"
      x2="67"
      y2="130.5"
      gradientUnits="userSpaceOnUse"
    >
      <stop stop-color="#F08D1A" />
      <stop offset="1" stop-color="#E6E047" />
    </linearGradient>
  </defs>
</svg>
