<svg width="700" height="400" viewBox="0 0 700 400" fill="none" xmlns="http://www.w3.org/2000/svg">
<g clip-path="url(#clip0_1_2)">
<rect width="700" height="400" fill="url(#paint0_linear_1_2)"/>
<rect x="599.746" y="256.672" width="174" height="29" rx="14.5" transform="rotate(137 599.746 256.672)" fill="url(#paint1_linear_1_2)"/>
<rect x="541.07" y="296.695" width="102.221" height="7.78671" rx="3.89335" transform="rotate(137 541.07 296.695)" fill="url(#paint2_linear_1_2)"/>
<rect x="339" y="372.48" width="134.135" height="7.78671" rx="3.89335" transform="rotate(-43 339 372.48)" fill="url(#paint3_linear_1_2)"/>
<rect x="635.07" y="318.695" width="102.221" height="7.78671" rx="3.89335" transform="rotate(137 635.07 318.695)" fill="url(#paint4_linear_1_2)"/>
<rect x="635.07" y="318.695" width="102.221" height="7.78671" rx="3.89335" transform="rotate(137 635.07 318.695)" fill="url(#paint5_linear_1_2)"/>
<rect x="680.07" y="351.695" width="102.221" height="7.78671" rx="3.89335" transform="rotate(137 680.07 351.695)" fill="url(#paint6_linear_1_2)"/>
<rect x="635.07" y="318.695" width="102.221" height="7.78671" rx="3.89335" transform="rotate(137 635.07 318.695)" fill="url(#paint7_linear_1_2)"/>
<rect x="555.07" y="346.695" width="102.221" height="7.78671" rx="3.89335" transform="rotate(137 555.07 346.695)" fill="url(#paint8_linear_1_2)"/>
<rect x="417.746" y="362.672" width="174" height="29" rx="14.5" transform="rotate(137 417.746 362.672)" fill="url(#paint9_linear_1_2)"/>
<rect x="439.61" y="255.672" width="216" height="29" rx="14.5" transform="rotate(137 439.61 255.672)" fill="url(#paint10_linear_1_2)"/>
<rect x="173.081" y="318.672" width="194" height="29" rx="14.5" transform="rotate(137 173.081 318.672)" fill="url(#paint11_linear_1_2)"/>
<rect x="166.668" y="227.672" width="250" height="29" rx="14.5" transform="rotate(137 166.668 227.672)" fill="url(#paint12_linear_1_2)"/>
<rect x="87" y="368.336" width="164.716" height="7.78671" rx="3.89335" transform="rotate(-43 87 368.336)" fill="url(#paint13_linear_1_2)"/>
<rect x="236" y="412.48" width="134.135" height="7.78671" rx="3.89335" transform="rotate(-43 236 412.48)" fill="url(#paint14_linear_1_2)"/>
<rect x="83" y="277.48" width="134.135" height="7.78671" rx="3.89335" transform="rotate(-43 83 277.48)" fill="url(#paint15_linear_1_2)"/>
<rect x="173" y="404.48" width="134.135" height="7.78671" rx="3.89335" transform="rotate(-43 173 404.48)" fill="url(#paint16_linear_1_2)"/>
<rect x="52" y="355.48" width="100.095" height="7.78671" rx="3.89335" transform="rotate(-43 52 355.48)" fill="url(#paint17_linear_1_2)"/>
<rect x="82" y="436.48" width="134.135" height="7.78671" rx="3.89335" transform="rotate(-43 82 436.48)" fill="url(#paint18_linear_1_2)"/>
<rect x="6" y="271.48" width="134.135" height="7.78671" rx="3.89335" transform="rotate(-43 6 271.48)" fill="url(#paint19_linear_1_2)"/>
<g style="mix-blend-mode:multiply">
<circle cx="565" cy="93" r="50" fill="url(#paint20_linear_1_2)"/>
</g>
<g clip-path="url(#clip1_1_2)" filter="url(#filter0_bi_1_2)">
<path d="M248.773 297C281.785 297 308.546 294.77 308.546 292.019C308.546 289.269 281.785 287.039 248.773 287.039C215.761 287.039 189 289.269 189 292.019C189 294.77 215.761 297 248.773 297Z" fill="#E6E6E6"/>
<path d="M234.689 118.811C245.092 113.957 258.048 117.032 270.701 119.167C270.819 116.582 272.246 113.436 270.751 111.633C268.935 109.442 269.102 107.139 270.195 104.824C272.99 98.9033 268.985 92.6032 264.942 87.3648C264.031 86.1868 262.879 85.2612 261.581 84.6632C260.282 84.0652 258.873 83.8117 257.469 83.9232L249.979 84.5102C248.157 84.653 246.417 85.4031 244.994 86.6601C243.571 87.917 242.531 89.6209 242.015 91.5438C240.226 94.2123 239.269 96.8734 239.872 99.5206C237.193 101.529 236.743 103.953 237.947 106.686C238.967 108.407 238.956 110.082 237.9 111.711C236.513 113.787 235.451 116.103 234.756 118.562L234.689 118.811Z" fill="#2F2E41"/>
<path d="M481.891 265.967H269.879C267.994 265.967 266.186 265.145 264.853 263.682C263.519 262.22 262.77 260.236 262.77 258.167C339.625 248.368 415.035 248.368 489 258.167C489 260.236 488.251 262.22 486.918 263.682C485.585 265.145 483.777 265.967 481.891 265.967Z" fill="#2F2E41"/>
<path d="M489 258.626L262.77 258.167L288.99 209.765L289.115 209.536V102.863C289.115 101.568 289.347 100.286 289.799 99.0901C290.251 97.8939 290.913 96.807 291.747 95.8914C292.581 94.9759 293.572 94.2496 294.663 93.7542C295.753 93.2588 296.921 93.0038 298.102 93.0039H452.414C453.595 93.0038 454.763 93.2588 455.853 93.7542C456.944 94.2496 457.934 94.9759 458.769 95.8914C459.603 96.807 460.265 97.8939 460.717 99.0901C461.169 100.286 461.401 101.568 461.401 102.863V210.27L489 258.626Z" fill="#3F3D56"/>
<path d="M297.897 99.8857C297.121 99.8867 296.377 100.225 295.828 100.827C295.279 101.429 294.97 102.246 294.97 103.097V200.36C294.97 201.212 295.279 202.028 295.828 202.63C296.377 203.232 297.121 203.571 297.897 203.572H453.874C454.65 203.571 455.394 203.232 455.943 202.63C456.491 202.028 456.8 201.212 456.801 200.36V103.097C456.8 102.246 456.491 101.43 455.943 100.827C455.394 100.225 454.65 99.8867 453.874 99.8857H297.897Z" fill="white"/>
<path d="M298.55 216.418C298.31 216.418 298.076 216.494 297.874 216.636C297.672 216.778 297.511 216.98 297.411 217.219L289.332 236.488C289.244 236.698 289.205 236.928 289.22 237.158C289.234 237.389 289.301 237.611 289.415 237.806C289.528 238 289.685 238.16 289.869 238.271C290.054 238.381 290.261 238.44 290.471 238.44H460.367C460.581 238.44 460.791 238.38 460.978 238.265C461.165 238.151 461.322 237.986 461.434 237.787C461.547 237.587 461.611 237.359 461.62 237.125C461.63 236.891 461.585 236.657 461.489 236.448L452.707 217.179C452.604 216.949 452.444 216.757 452.246 216.622C452.047 216.488 451.819 216.417 451.586 216.418H298.55Z" fill="#2F2E41"/>
<path d="M375.258 98.28C376.297 98.28 377.14 97.3557 377.14 96.2154C377.14 95.0752 376.297 94.1509 375.258 94.1509C374.219 94.1509 373.376 95.0752 373.376 96.2154C373.376 97.3557 374.219 98.28 375.258 98.28Z" fill="white"/>
<path d="M358.559 242.11C358.283 242.11 358.015 242.21 357.796 242.394C357.577 242.578 357.419 242.836 357.347 243.128L355.321 251.386C355.271 251.59 355.264 251.804 355.301 252.012C355.339 252.219 355.419 252.414 355.536 252.582C355.653 252.749 355.804 252.885 355.977 252.979C356.15 253.072 356.34 253.121 356.532 253.121H395.072C395.272 253.121 395.469 253.068 395.647 252.968C395.825 252.867 395.978 252.721 396.094 252.543C396.21 252.364 396.285 252.157 396.314 251.94C396.342 251.723 396.323 251.501 396.257 251.294L393.652 243.036C393.566 242.766 393.406 242.531 393.194 242.365C392.981 242.199 392.727 242.11 392.466 242.11H358.559Z" fill="#2F2E41"/>
<path d="M461.401 207.93V209.765H288.99L289.119 209.536V207.93H461.401Z" fill="#2F2E41"/>
<path d="M456.592 132.23C472.758 132.23 485.864 117.852 485.864 100.115C485.864 82.3784 472.758 68 456.592 68C440.426 68 427.32 82.3784 427.32 100.115C427.32 117.852 440.426 132.23 456.592 132.23Z" fill="#3C909E"/>
<path d="M468.719 114.108H444.465C444.022 114.108 443.596 113.914 443.283 113.57C442.969 113.226 442.793 112.76 442.792 112.273V96.2154C442.793 95.7289 442.969 95.2624 443.283 94.9184C443.596 94.5743 444.022 94.3808 444.465 94.3803H468.719C469.162 94.3808 469.587 94.5743 469.901 94.9184C470.215 95.2624 470.391 95.7289 470.391 96.2154V112.273C470.391 112.76 470.215 113.226 469.901 113.57C469.587 113.914 469.162 114.108 468.719 114.108ZM444.465 96.2154V112.273H468.72L468.719 96.2154L444.465 96.2154Z" fill="white"/>
<path d="M464.119 96.2154H449.065V88.8748C449.065 83.558 452.23 79.6991 456.592 79.6991C460.953 79.6991 464.119 83.558 464.119 88.8748L464.119 96.2154ZM450.737 94.3803H462.446V88.8748C462.446 84.5529 460.039 81.5342 456.592 81.5342C453.145 81.5342 450.738 84.5529 450.738 88.8748L450.737 94.3803Z" fill="white"/>
<path d="M456.592 105.621C457.516 105.621 458.265 104.799 458.265 103.785C458.265 102.772 457.516 101.95 456.592 101.95C455.668 101.95 454.919 102.772 454.919 103.785C454.919 104.799 455.668 105.621 456.592 105.621Z" fill="white"/>
<path d="M436.158 170.581H315.613C315.021 170.58 314.454 170.322 314.035 169.863C313.617 169.404 313.381 168.781 313.381 168.132V135.325C313.381 134.676 313.617 134.054 314.035 133.595C314.454 133.135 315.021 132.877 315.613 132.876H436.158C436.749 132.877 437.317 133.135 437.735 133.595C438.154 134.054 438.389 134.676 438.39 135.325V168.132C438.389 168.781 438.154 169.404 437.735 169.863C437.317 170.322 436.749 170.58 436.158 170.581ZM315.613 133.856C315.258 133.856 314.917 134.011 314.666 134.287C314.415 134.562 314.274 134.936 314.274 135.325V168.132C314.274 168.522 314.415 168.895 314.666 169.171C314.917 169.446 315.258 169.601 315.613 169.601H436.158C436.513 169.601 436.853 169.446 437.104 169.171C437.355 168.895 437.497 168.522 437.497 168.132V135.325C437.497 134.936 437.355 134.562 437.104 134.287C436.853 134.011 436.513 133.856 436.158 133.856L315.613 133.856Z" fill="#E6E6E6"/>
<path d="M334.343 160.446C339.365 160.446 343.436 155.98 343.436 150.47C343.436 144.96 339.365 140.493 334.343 140.493C329.321 140.493 325.25 144.96 325.25 150.47C325.25 155.98 329.321 160.446 334.343 160.446Z" fill="#E6E6E6"/>
<path d="M355.344 143.819C355.145 143.819 354.948 143.861 354.763 143.945C354.579 144.028 354.412 144.151 354.271 144.305C354.13 144.459 354.018 144.643 353.942 144.845C353.865 145.047 353.826 145.263 353.826 145.482C353.826 145.7 353.865 145.917 353.942 146.119C354.018 146.321 354.13 146.504 354.271 146.658C354.412 146.813 354.579 146.935 354.763 147.019C354.948 147.102 355.145 147.145 355.344 147.144H426.791C427.193 147.144 427.578 146.969 427.863 146.657C428.147 146.346 428.307 145.923 428.307 145.482C428.307 145.041 428.147 144.618 427.863 144.306C427.578 143.994 427.193 143.819 426.791 143.819H355.344Z" fill="#E6E6E6"/>
<path d="M355.344 153.795C354.942 153.795 354.557 153.971 354.272 154.282C353.988 154.594 353.829 155.017 353.829 155.458C353.829 155.899 353.988 156.322 354.272 156.634C354.557 156.946 354.942 157.121 355.344 157.121H386.088C386.49 157.121 386.875 156.946 387.16 156.634C387.444 156.322 387.603 155.899 387.603 155.458C387.603 155.017 387.444 154.594 387.16 154.282C386.875 153.971 386.49 153.795 386.088 153.795H355.344Z" fill="#E6E6E6"/>
<path d="M288.693 154.468L266.409 167.466L266.127 156.634C273.401 155.302 280.32 152.983 286.719 149.207L289.049 142.89C289.303 142.202 289.716 141.597 290.247 141.137C290.778 140.676 291.409 140.375 292.078 140.263C292.747 140.151 293.431 140.232 294.063 140.498C294.695 140.763 295.254 141.205 295.683 141.778C296.312 142.618 296.626 143.688 296.562 144.773C296.499 145.857 296.061 146.874 295.34 147.618L288.693 154.468Z" fill="#FFB8B8"/>
<path d="M234.245 229.512C234.083 228.858 234.048 228.174 234.144 227.504C234.24 226.834 234.464 226.194 234.801 225.626L239.696 217.384C240.854 215.435 242.63 214.026 244.681 213.433C246.732 212.839 248.91 213.103 250.794 214.172C248.737 218.014 249.023 221.384 251.504 224.313C247.653 226.376 244.093 229.038 240.936 232.218C240.359 232.649 239.697 232.923 239.005 233.016C238.313 233.11 237.61 233.021 236.955 232.756C236.301 232.491 235.713 232.059 235.242 231.495C234.77 230.93 234.429 230.251 234.245 229.512Z" fill="#2F2E41"/>
<path d="M289.708 218.736C288.967 220.09 287.922 221.213 286.671 221.996C285.421 222.78 284.009 223.198 282.569 223.21L250.049 223.48L248.639 214.505L263.025 209.863L250.896 199.651L264.153 182.63L288.232 207.253C289.64 208.692 290.554 210.618 290.823 212.708C291.091 214.798 290.698 216.926 289.708 218.736Z" fill="#2F2E41"/>
<path d="M244.972 280.113H237.356C230.518 228.688 223.558 177.12 244.126 157.872L268.384 162.205L265.281 184.796L251.742 201.817L244.972 280.113Z" fill="#2F2E41"/>
<path d="M251.667 291.762C251.071 291.94 250.447 291.978 249.836 291.873C249.226 291.768 248.642 291.523 248.125 291.152L239.855 289.933C238.078 288.663 236.795 286.714 236.254 284.464C235.713 282.214 235.952 279.824 236.927 277.757C240.429 280.014 243.501 279.699 246.17 276.977C248.056 281.156 251.164 280.901 254.132 284.421C254.525 285.054 254.775 285.78 254.86 286.54C254.946 287.299 254.864 288.07 254.623 288.789C254.382 289.507 253.988 290.151 253.474 290.669C252.959 291.186 252.34 291.561 251.667 291.762Z" fill="#2F2E41"/>
<path d="M263.025 123.521L248.921 119.807C251.263 114.547 251.456 108.694 250.331 102.477L259.922 102.168C260.222 109.898 261.131 117.121 263.025 123.521Z" fill="#FFB8B8"/>
<path d="M266.901 171.523C256.634 179.198 249.38 171.785 243.844 160.348C244.613 153.349 243.367 144.974 241.061 135.874C240.035 131.86 240.418 127.57 242.134 123.85C243.85 120.131 246.775 117.253 250.331 115.784L262.46 121.355C272.759 130.565 274.787 140.542 270.923 151.064L266.901 171.523Z" fill="#3C909E"/>
<path d="M237.356 131.258L226.073 137.757L246.1 150.754L248.887 158.296C249.073 158.799 249.164 159.339 249.153 159.882C249.143 160.425 249.032 160.96 248.827 161.454C248.622 161.949 248.327 162.392 247.961 162.758C247.595 163.123 247.165 163.403 246.697 163.58C246.165 163.781 245.598 163.845 245.039 163.765C244.481 163.686 243.948 163.466 243.48 163.122C243.012 162.779 242.624 162.321 242.344 161.785C242.065 161.249 241.902 160.65 241.869 160.033L241.587 154.778L216.133 145.562C215.275 145.251 214.493 144.731 213.846 144.04C213.199 143.348 212.704 142.505 212.398 141.572C211.952 140.214 211.929 138.731 212.334 137.356C212.738 135.982 213.546 134.793 214.631 133.976L235.1 118.57L237.356 131.258Z" fill="#FFB8B8"/>
<path d="M248.639 132.496C243.933 130.233 239.654 132.691 234.253 134.662L233.407 118.26C238.77 115.124 243.883 114.279 248.639 116.713L248.639 132.496Z" fill="#3C909E"/>
<path d="M254.268 110.292C259.241 110.292 263.273 105.869 263.273 100.413C263.273 94.9567 259.241 90.5336 254.268 90.5336C249.295 90.5336 245.263 94.9567 245.263 100.413C245.263 105.869 249.295 110.292 254.268 110.292Z" fill="#FFB8B8"/>
<path d="M265.04 99.1663C256.125 100.124 249.332 98.5246 244.99 93.9698V90.3016H264.284L265.04 99.1663Z" fill="#2F2E41"/>
</g>
</g>
<defs>
<filter id="filter0_bi_1_2" x="185" y="64" width="308" height="237" filterUnits="userSpaceOnUse" color-interpolation-filters="sRGB">
<feFlood flood-opacity="0" result="BackgroundImageFix"/>
<feGaussianBlur in="BackgroundImageFix" stdDeviation="2"/>
<feComposite in2="SourceAlpha" operator="in" result="effect1_backgroundBlur_1_2"/>
<feBlend mode="normal" in="SourceGraphic" in2="effect1_backgroundBlur_1_2" result="shape"/>
<feColorMatrix in="SourceAlpha" type="matrix" values="0 0 0 0 0 0 0 0 0 0 0 0 0 0 0 0 0 0 127 0" result="hardAlpha"/>
<feOffset dy="4"/>
<feGaussianBlur stdDeviation="2"/>
<feComposite in2="hardAlpha" operator="arithmetic" k2="-1" k3="1"/>
<feColorMatrix type="matrix" values="0 0 0 0 0 0 0 0 0 0 0 0 0 0 0 0 0 0 0.25 0"/>
<feBlend mode="normal" in2="shape" result="effect2_innerShadow_1_2"/>
</filter>
<linearGradient id="paint0_linear_1_2" x1="2.49999" y1="3.50002" x2="700" y2="397.034" gradientUnits="userSpaceOnUse">
<stop stop-color="#495FD2"/>
<stop offset="1" stop-color="#79EDF4"/>
</linearGradient>
<linearGradient id="paint1_linear_1_2" x1="773.746" y1="271.172" x2="599.746" y2="271.172" gradientUnits="userSpaceOnUse">
<stop stop-color="#6E89CF"/>
<stop offset="1" stop-color="#6CB6FB"/>
</linearGradient>
<linearGradient id="paint2_linear_1_2" x1="643.292" y1="300.588" x2="541.07" y2="300.588" gradientUnits="userSpaceOnUse">
<stop stop-color="#6E89CF"/>
<stop offset="1" stop-color="#6CB6FB"/>
</linearGradient>
<linearGradient id="paint3_linear_1_2" x1="473.135" y1="376.373" x2="339" y2="376.373" gradientUnits="userSpaceOnUse">
<stop stop-color="#6E89CF"/>
<stop offset="1" stop-color="#85C5FF"/>
</linearGradient>
<linearGradient id="paint4_linear_1_2" x1="737.292" y1="322.588" x2="635.07" y2="322.588" gradientUnits="userSpaceOnUse">
<stop stop-color="#6E89CF"/>
<stop offset="1" stop-color="#6CB6FB"/>
</linearGradient>
<linearGradient id="paint5_linear_1_2" x1="737.292" y1="322.588" x2="635.07" y2="322.588" gradientUnits="userSpaceOnUse">
<stop stop-color="#6E89CF"/>
<stop offset="1" stop-color="#6CB6FB"/>
</linearGradient>
<linearGradient id="paint6_linear_1_2" x1="782.292" y1="355.588" x2="680.07" y2="355.588" gradientUnits="userSpaceOnUse">
<stop stop-color="#6E89CF"/>
<stop offset="1" stop-color="#6CB6FB"/>
</linearGradient>
<linearGradient id="paint7_linear_1_2" x1="737.292" y1="322.588" x2="635.07" y2="322.588" gradientUnits="userSpaceOnUse">
<stop stop-color="#6E89CF"/>
<stop offset="1" stop-color="#6CB6FB"/>
</linearGradient>
<linearGradient id="paint8_linear_1_2" x1="657.292" y1="350.588" x2="555.07" y2="350.588" gradientUnits="userSpaceOnUse">
<stop stop-color="#6E89CF"/>
<stop offset="1" stop-color="#6CB6FB"/>
</linearGradient>
<linearGradient id="paint9_linear_1_2" x1="591.746" y1="377.172" x2="417.746" y2="377.172" gradientUnits="userSpaceOnUse">
<stop stop-color="#6E89CF"/>
<stop offset="1" stop-color="#6CB6FB"/>
</linearGradient>
<linearGradient id="paint10_linear_1_2" x1="655.61" y1="270.172" x2="439.61" y2="270.172" gradientUnits="userSpaceOnUse">
<stop stop-color="#6E89CF"/>
<stop offset="1" stop-color="#6CB6FB"/>
</linearGradient>
<linearGradient id="paint11_linear_1_2" x1="367.081" y1="333.172" x2="173.081" y2="333.172" gradientUnits="userSpaceOnUse">
<stop stop-color="#6E89CF"/>
<stop offset="1" stop-color="#6CB6FB"/>
</linearGradient>
<linearGradient id="paint12_linear_1_2" x1="416.668" y1="242.172" x2="166.668" y2="242.172" gradientUnits="userSpaceOnUse">
<stop stop-color="#6E89CF"/>
<stop offset="1" stop-color="#6CB6FB"/>
</linearGradient>
<linearGradient id="paint13_linear_1_2" x1="251.716" y1="372.229" x2="87" y2="372.229" gradientUnits="userSpaceOnUse">
<stop stop-color="#6E89CF"/>
<stop offset="1" stop-color="#ABD7FF"/>
</linearGradient>
<linearGradient id="paint14_linear_1_2" x1="370.135" y1="416.373" x2="236" y2="416.373" gradientUnits="userSpaceOnUse">
<stop stop-color="#6E89CF"/>
<stop offset="1" stop-color="#ABD7FF"/>
</linearGradient>
<linearGradient id="paint15_linear_1_2" x1="217.135" y1="281.373" x2="83" y2="281.373" gradientUnits="userSpaceOnUse">
<stop stop-color="#6E89CF"/>
<stop offset="1" stop-color="#85C5FF"/>
</linearGradient>
<linearGradient id="paint16_linear_1_2" x1="307.135" y1="408.373" x2="173" y2="408.373" gradientUnits="userSpaceOnUse">
<stop stop-color="#6E89CF"/>
<stop offset="1" stop-color="#85C5FF"/>
</linearGradient>
<linearGradient id="paint17_linear_1_2" x1="152.095" y1="359.373" x2="52" y2="359.373" gradientUnits="userSpaceOnUse">
<stop stop-color="#6E89CF"/>
<stop offset="1" stop-color="#85C5FF"/>
</linearGradient>
<linearGradient id="paint18_linear_1_2" x1="216.135" y1="440.373" x2="82" y2="440.373" gradientUnits="userSpaceOnUse">
<stop stop-color="#6E89CF"/>
<stop offset="1" stop-color="#85C5FF"/>
</linearGradient>
<linearGradient id="paint19_linear_1_2" x1="140.135" y1="275.373" x2="6" y2="275.373" gradientUnits="userSpaceOnUse">
<stop stop-color="#6E89CF"/>
<stop offset="1" stop-color="#85C5FF"/>
</linearGradient>
<linearGradient id="paint20_linear_1_2" x1="565" y1="43" x2="519" y2="133" gradientUnits="userSpaceOnUse">
<stop stop-color="#7BEFFF" stop-opacity="0.4"/>
<stop offset="1" stop-color="#4E75A3" stop-opacity="0.3"/>
</linearGradient>
<clipPath id="clip0_1_2">
<rect width="700" height="400" fill="white"/>
</clipPath>
<clipPath id="clip1_1_2">
<rect width="300" height="229" fill="white" transform="translate(189 68)"/>
</clipPath>
</defs>
</svg>
