<svg version="1.1" id="Layer_1" xmlns="http://www.w3.org/2000/svg" xmlns:xlink="http://www.w3.org/1999/xlink" x="0px" y="0px" viewBox="0 0 500 500" style="width: 166px;" xml:space="preserve" data-imageid="note-taking-63" imageName="Note Taking" class="illustrations_image">
<style type="text/css">
	.st0_note-taking-63{fill:#E5E1E1;}
	.st1_note-taking-63{opacity:0.32;fill:url(#SVGID_1_);enable-background:new    ;}
	.st2_note-taking-63{fill:#FF7F5C;}
	.st3_note-taking-63{fill:#973F00;}
	.st4_note-taking-63{fill:#297600;}
	.st5_note-taking-63{fill:#5FAD00;}
	.st6_note-taking-63{fill:#68E1FD;}
	.st7_note-taking-63{fill:#FFFFFF;}
	.st8_note-taking-63{fill:#363942;}
	.st9_note-taking-63{opacity:0.32;fill:url(#SVGID_00000145773900760977646660000009921881075633960580_);enable-background:new    ;}
	.st10_note-taking-63{fill:#DB9231;}
	.st11_note-taking-63{fill:#FBC76F;}
</style>
<path id="field_note-taking-63" class="st0_note-taking-63" d="M23.9,260.6L230.4,143c10.3-5.8,22.9-5.8,33.1,0.2l212.8,124c8.8,5.1,11.8,16.4,6.6,25.2&#10;&#9;c-1.6,2.8-3.9,5.1-6.7,6.7L277.6,413.1c-13.7,7.9-30.5,7.9-44.2,0L23.8,292.5c-8.8-5.1-11.8-16.3-6.8-25.1&#10;&#9;C18.6,264.5,21,262.2,23.9,260.6z"/>
<g id="plant_note-taking-63">
	
		<linearGradient id="SVGID_1_-note-taking-63" gradientUnits="userSpaceOnUse" x1="77.02" y1="215.18" x2="95.54" y2="241.51" gradientTransform="matrix(1 0 0 -1 0 502)">
		<stop offset="0" style="stop-color:#363942;stop-opacity:0"/>
		<stop offset="0.99" style="stop-color:#363942"/>
	</linearGradient>
	<polyline class="st1_note-taking-63" points="134.6,259 71.2,295.4 45.2,278 102.3,246.8 &#9;"/>
	<polyline class="st2_note-taking-63" points="97.5,229.7 97.5,253.7 136.3,253.7 136.3,229.7 &#9;"/>
	<ellipse class="st3_note-taking-63" cx="116.9" cy="229.7" rx="19.4" ry="9.5"/>
	<ellipse class="st2_note-taking-63" cx="116.9" cy="254.6" rx="19.4" ry="9.5"/>
	<path class="st4_note-taking-63" d="M138.6,174c-4.1-1.7-9.8-7.2-14.7-7.1c-1.9,4.6-2.4,10-3,14.7c-0.9,8.1-1.1,16.4-0.6,24.6&#10;&#9;&#9;c0.1,1.8,0.3,3.6,0.4,5.4c0,0.5,0.2,1.1,0.4,1.5v19c0,0.3,0.3,0.6,0.6,0.6c0.3,0,0.6-0.3,0.6-0.6v-18.2c1.9-0.6,3.8-1.5,5.6-2.6&#10;&#9;&#9;c3.6-2.3,6.4-5.7,7.8-9.8c3.1-8.7,1.1-18.4,4.1-27.1C139.5,174.4,139,174.2,138.6,174z"/>
	<path class="st5_note-taking-63" d="M130.2,159.8c-2.3,1.4-4.2,3.3-5.5,5.7c-0.3,0.5-0.6,1.1-0.9,1.7c-0.1,0.1-0.1,0.2-0.2,0.4l0,0&#10;&#9;&#9;c-0.4,1-0.7,2-0.9,3c0.5-0.8,1.2-1.3,2.1-1.6c1-0.5,2.1-0.6,3.2-0.3c1.1,0.4,2.1,0.9,3,1.6c1.4,0.8,2.7,1.8,4.1,2.6&#10;&#9;&#9;c6.4,4.1,15,4.5,19.9-1.4c0.1-0.2,0.1-0.5,0.2-0.7C155.9,166.6,144.4,151.5,130.2,159.8z"/>
	<path class="st4_note-taking-63" d="M152.1,173.9l0.8-0.5c0-0.2,0-0.3-0.2-0.5c-3.9-4-8-7.9-13.4-9.9c-3.8-1.4-7.9-1.8-11.9-1.2&#10;&#9;&#9;c-0.4,0.5-0.8,1-1.2,1.6c4.3-1.4,9.8-0.5,13.7,1.1c4.7,2,8.4,5.6,11.9,9.2C152,173.8,152,173.8,152.1,173.9z"/>
	<path class="st4_note-taking-63" d="M87.1,182.5c-5.7,3-9.1,9.1-8.7,15.5c0.5,11.4,19.3,0.3,24.3-9.4s5.8,4.1,5.8,4.1"/>
	<path class="st5_note-taking-63" d="M104,178.5c-3.5-0.1-7,0.4-10.4,1.5c-2.3,0.5-4.5,1.4-6.5,2.5c1.2,0.8,2.5,1.5,3.8,2c2.4,1,4.8,2.1,6.1,4.4&#10;&#9;&#9;c0.3,0.5,0.5,1.1,0.7,1.7c1.2,3.8,0.2,8.3,1.7,12.1c1.6,3.9,4.7,7.1,9.2,7.4c5.3,0.3,7.7-4.8,8.8-9.2s2.5-10.4,0.8-15&#10;&#9;&#9;C116.2,180.7,109.1,178.8,104,178.5z"/>
	<path class="st4_note-taking-63" d="M111,196.4c-2.2-7.2-7-14-13.9-17.2h-0.2l-0.3,0.1c-0.4,0.1-0.8,0.2-1.2,0.3c8.1,3,13.1,10.9,15.2,19&#10;&#9;&#9;c2.6,10.4,1.8,21.6,1.8,32.2c0,0.3,0.3,0.5,0.6,0.5c0.3,0,0.4-0.2,0.5-0.5C113.4,219.5,114.4,207.4,111,196.4z"/>
</g>
<g id="clock_note-taking-63">
	
		<ellipse transform="matrix(0.9656 -0.2602 0.2602 0.9656 -19.0002 112.4458)" class="st6_note-taking-63 targetColor" cx="415.3" cy="128" rx="24.2" ry="29.4" style="fill: rgb(26, 167, 212);"/>
	
		<ellipse transform="matrix(0.9656 -0.2602 0.2602 0.9656 -19.5234 111.5067)" class="st6_note-taking-63 targetColor" cx="411.5" cy="129.5" rx="24.2" ry="29.4" style="fill: rgb(26, 167, 212);"/>
	
		<ellipse transform="matrix(0.9656 -0.2602 0.2602 0.9656 -19.5234 111.5067)" class="st7_note-taking-63" cx="411.5" cy="129.5" rx="20" ry="24.3"/>
	<path class="st8_note-taking-63" d="M410.9,128.9l-7,10c-0.6,0.8,0.6,1.8,1.2,1l7-10C412.7,129,411.5,128,410.9,128.9z"/>
	<path class="st8_note-taking-63" d="M410.6,113.1v15.5c0,0.5,0.4,0.9,0.9,0.9c0.5,0,0.9-0.4,0.9-0.9v-15.5c0-0.5-0.4-0.9-0.9-0.9&#10;&#9;&#9;C411,112.2,410.6,112.6,410.6,113.1z"/>
</g>
<g id="person_note-taking-63">
	<path class="st8_note-taking-63" d="M274.5,138.7l31.5-11c0,0,0.7,11.4-2.3,19.3l-27.5,15.9"/>
	
		<linearGradient id="SVGID_00000031188867992518221820000004808212056319071654_-note-taking-63" gradientUnits="userSpaceOnUse" x1="219.4121" y1="129.072" x2="259.1521" y2="160.472" gradientTransform="matrix(1 0 0 -1 0 502)">
		<stop offset="0" style="stop-color:#363942;stop-opacity:0"/>
		<stop offset="0.99" style="stop-color:#363942"/>
	</linearGradient>
	<path style="opacity:0.32;fill:url(#SVGID_00000031188867992518221820000004808212056319071654_);enable-background:new    ;" d="&#10;&#9;&#9;M237.1,385l52.9-31.5L252.9,328l-61.4,30.6C206.1,367.6,222.9,375.3,237.1,385z"/>
	<path class="st8_note-taking-63" d="M272.5,318.3c-0.2,1-2.8,12.5,0,16.2c3,4,7.8,6.2,11.6,9.4c2,1.7,9.5,11.7,3.7,12.8c-4,0.8-16-3-23.5-8.5&#10;&#9;&#9;s-12.7-6.5-13-9.4s4.6-26.2,4.6-26.2"/>
	<path class="st8_note-taking-63" d="M247.4,333.4c0,0,0.7,10.8,2.2,13.7s8,15,4.7,19s-18.1-4.4-20.2-12.1s-4-8.3-4.7-11.5s2.5-19.5,2.5-19.5"/>
	<path class="st2_note-taking-63" d="M283.2,193.4c0,0-6.6,128.9-10.5,131.7s-14.3,3.9-21.2-1.2l7.6-55l-9.7,69.9c0,0-19.2,3.1-25.1-4.2&#10;&#9;&#9;c-1.7-2.1,15.1-140,15.1-140"/>
	<path class="st6_note-taking-63 targetColor" d="M282.6,185c-0.5-8-1-16.1-1.5-24.1c-0.8-12.1,0.6-37.8-10.7-45.5c-6.2-4.2-16.2-2.1-22.2,1&#10;&#9;&#9;c-13.6,7.2-25.4,36.8-26.7,48.6c-0.1,1.2-0.1,2.5,0.2,3.7c6,2.3,12.8,2.2,16.1,8.7c2.6,5.2,2,11.4,1.8,17.2&#10;&#9;&#9;c0.9,0.9,1.4,1.3,1.4,1.3c26.1,12.9,42.3,0,42.3,0C284.1,195.2,282.6,186.1,282.6,185z" style="fill: rgb(26, 167, 212);"/>
	<path class="st10_note-taking-63" d="M252.5,104.2l-0.9,12.1c0,0,8.2,8.4,16.4,7.3l-3.9-16.9"/>
	<path class="st10_note-taking-63" d="M252.5,104.2l-0.3,6.6c0,0,8.6,6.3,13.4,1.4S252.5,104.2,252.5,104.2z"/>
	<path class="st6_note-taking-63 targetColor" d="M221.4,164.9c0,0-1.6,13.9,10.9,15.4s43.9-17.4,43.9-17.4s-1.6-9.3-5-12.6s-29.1,3.3-29.1,3.3" style="fill: rgb(26, 167, 212);"/>
	<path class="st8_note-taking-63" d="M262,210.7c-2.1,38.9-6.2,77.6-12.4,116c-0.2,1.2,1.6,1.7,1.9,0.5c6.2-38.6,10.4-77.5,12.5-116.5&#10;&#9;&#9;C263.9,209.5,262,209.5,262,210.7z"/>
	<polygon class="st8_note-taking-63" points="273.2,166.1 237.7,177.4 239.7,189.1 &#9;"/>
	<polygon class="st2_note-taking-63" points="285,161.2 295.1,127.3 323.7,112 312.4,148.8 &#9;"/>
	<path class="st7_note-taking-63" d="M251.6,112.8c0,0,4.3,4,7.1,4.3l4.4,2.4l3.6,3.7V118c0,0-1.1-4.7-0.9-4.6s3.9,6,3.9,6l3.6,6l-5.2-0.5l-2.3,3.8&#10;&#9;&#9;c0,0-13-5.8-17.5-12.4L251.6,112.8z"/>
	<path class="st8_note-taking-63" d="M248.2,99.7c0-0.3-3.1-5.2-2.4-7.9c0.4-1.5,1.5-2.8,2.9-3.4c0,0-1.1-6.7,4.8-7.1s18.7-0.6,20.4,2.8&#10;&#9;&#9;s-0.1,9.3-4.6,10.1S255,93.6,255,93.6S256,101.6,248.2,99.7"/>
	<path class="st11_note-taking-63" d="M269.7,91.4c0,0,4.8,21.3-3.6,23.2s-14.6-10.9-14.6-10.9s-5.5-4.4-2.3-5.7s3.8,0.5,3.8,0.5s-3.7-7-0.4-7.2&#10;&#9;&#9;S265.8,95.8,269.7,91.4z"/>
	<path class="st8_note-taking-63" d="M269.9,101.9c-0.3,0-0.6,0-0.9-0.1c-2-0.5-3.2-2.5-2.8-4.5c0.5-2,2.5-3.2,4.5-2.8c2,0.5,3.2,2.5,2.8,4.5&#10;&#9;&#9;c-0.2,1-0.8,1.8-1.7,2.3C271.3,101.7,270.6,101.9,269.9,101.9z M269.9,94.8c-1.9,0-3.4,1.5-3.4,3.5c0,1.6,1.1,3,2.7,3.4&#10;&#9;&#9;c1.9,0.4,3.7-0.7,4.1-2.6l0,0c0.4-1.9-0.7-3.7-2.6-4.2C270.4,94.8,270.2,94.8,269.9,94.8L269.9,94.8z"/>
	<path class="st8_note-taking-63" d="M259.8,102.4c-0.3,0-0.6,0-0.9-0.1c-2.2-0.5-3.6-2.7-3.1-4.9c0.5-2.2,2.7-3.6,4.9-3.1c1.1,0.2,2,0.9,2.5,1.8&#10;&#9;&#9;c0.6,0.9,0.8,2,0.5,3.1l0,0C263.4,101.1,261.7,102.4,259.8,102.4L259.8,102.4z M259.8,94.5c-2.1,0-3.8,1.7-3.8,3.8&#10;&#9;&#9;c0,1.8,1.2,3.3,3,3.7c2.1,0.5,4.1-0.8,4.6-2.9l0,0c0.2-1,0.1-2-0.5-2.9C262.4,95.2,261.2,94.5,259.8,94.5z"/>
	<polygon class="st8_note-taking-63" points="255.8,98.3 252.6,98 252.6,97.7 255.8,98.1 &#9;"/>
	<polygon class="st8_note-taking-63" points="263.8,98.5 263.8,98.3 266.3,98.2 266.4,98.4 &#9;"/>
	<path class="st8_note-taking-63" d="M264.8,104.2l-0.1-0.2c0.6-0.1,1.1-0.5,1.3-1c0.4-1.2-1.1-2.8-1.1-2.8l0.2-0.2c0.1,0.1,1.6,1.8,1.2,3.1&#10;&#9;&#9;C266,103.7,265.5,104.1,264.8,104.2z"/>
	<path class="st11_note-taking-63" d="M321.6,125.2l1.1-1c0.7-0.9,0.5-2.1-0.3-2.8c-0.7-0.6-1.8-0.6-2.5,0l-4.4,3.9c-0.8,0.8-0.8,2,0,2.8&#10;&#9;&#9;c0.3,0.3,0.7,0.5,1.2,0.5l-1.6,1.6c-0.7,0.7-0.8,1.8-0.1,2.6c-0.4,0.4-0.8,0.8-1.2,1.2c-0.8,0.8-0.8,2,0,2.8l0,0&#10;&#9;&#9;c-0.3,0.3-0.6,0.7-1,1c-0.8,0.8-0.8,2,0,2.8c0.8,0.8,2,0.8,2.8,0c1.1-1.4,2.5-2.5,3.9-3.5c0.9-0.6,1.2-1.8,0.7-2.8&#10;&#9;&#9;c-0.2-0.3-0.4-0.5-0.7-0.7c0.6-0.6,1.2-1.1,1.9-1.7c0.8-0.8,0.8-2,0-2.8l0,0l0.9-0.9c0.7-0.8,0.7-2.1-0.1-2.8&#10;&#9;&#9;C322,125.5,321.8,125.3,321.6,125.2z"/>
	<polygon class="st3_note-taking-63" points="285.4,147.4 276.8,127.7 281.9,124.6 289.5,144.8 &#9;"/>
	<path class="st2_note-taking-63" d="M276.8,127.7l-0.9-1.9c-0.4-0.9-0.1-2,0.8-2.5l2.1-1.1c0.9-0.5,2.1-0.2,2.6,0.8c0.1,0.1,0.1,0.2,0.1,0.3&#10;&#9;&#9;l0.4,1.3"/>
	<path class="st11_note-taking-63" d="M293.9,144.4c-2.5-0.1-7,0.4-7,0.4c-0.8-1-2-1.7-3.2-2c-1.7-0.2-6,3.7-7.4,5.3c-0.6,0.7-3.5,1.7-6.7,2.7&#10;&#9;&#9;c0.2,0.5,0.3,1,0.4,1.5c0.4,3.2,0.7,6.4,1.2,9.6c3.8-1.3,8.2-2.8,8.5-3.1c0.6-0.5,12.1-3,13.4-5.1S297.5,144.5,293.9,144.4z"/>
	<path class="st8_note-taking-63" d="M269.7,147.7c-0.2-0.5-0.7-0.8-1.2-0.7l-29.6,8.8c-0.5,0.3-0.6,0.9-0.3,1.4c0.2,0.3,0.5,0.5,0.8,0.5l28.6-8.6&#10;&#9;&#9;c1.3,5.8,2.3,11.6,3.2,17.4c0.2,1.2,2,0.7,1.9-0.5C272.2,159.9,271.1,153.8,269.7,147.7z"/>
</g>
</svg>