<svg id="_0290_note_taking_1" data-name="0290_note_taking_1" xmlns="http://www.w3.org/2000/svg" xmlns:xlink="http://www.w3.org/1999/xlink" viewBox="0 0 500 500" data-imageid="note-taking-1-3" imageName="Note Taking 1" class="illustrations_image" style="width: 166px;"><defs><style>.cls-1_note-taking-1-3{fill:#ffd4bf;}.cls-14_note-taking-1-3,.cls-2_note-taking-1-3,.cls-6_note-taking-1-3{isolation:isolate;opacity:0.32;}.cls-2_note-taking-1-3{fill:url(#linear-gradient);}.cls-3_note-taking-1-3{fill:#68e1fd;}.cls-4_note-taking-1-3{fill:#5ed18d;}.cls-5_note-taking-1-3{fill:#2d0f02;}.cls-6_note-taking-1-3{fill:url(#linear-gradient-2-note-taking-1-3);}.cls-7_note-taking-1-3{fill:#ab2f6e;}.cls-8_note-taking-1-3{fill:#b3b3b3;}.cls-9_note-taking-1-3{fill:#f2f2f2;}.cls-10_note-taking-1-3{fill:none;}.cls-11_note-taking-1-3{fill:#999;}.cls-12_note-taking-1-3{fill:#ffc388;}.cls-13_note-taking-1-3{fill:#fcb749;}.cls-14_note-taking-1-3{fill:url(#linear-gradient-3-note-taking-1-3);}</style><linearGradient id="linear-gradient-note-taking-1-3" x1="200.72" y1="1885.22" x2="230.53" y2="1913.26" gradientTransform="matrix(1, 0, 0, -1, 0, 2092.52)" gradientUnits="userSpaceOnUse"><stop offset="0" stop-color="#2d0f02" stop-opacity="0"/><stop offset="0.99" stop-color="#2d0f02"/></linearGradient><linearGradient id="linear-gradient-2-note-taking-1-3" x1="195.6" y1="1744.93" x2="241.86" y2="1788.44" xlink:href="#linear-gradient-note-taking-1-3"/><linearGradient id="linear-gradient-3-note-taking-1-3" x1="101.8" y1="1793.02" x2="131.61" y2="1821.05" xlink:href="#linear-gradient-note-taking-1-3"/></defs><path id="field_note-taking-1-3" class="cls-1_note-taking-1-3" d="M242.89,416.15,20,284.36c-7.1-4-13.18-10.53-6.27-14.79l223.75-129c3.36-2.08,8.46-3.44,11.86-1.46L483.36,275c7.1,4.12,8.37,15.65,1.26,19.76L272.28,415.9A29.59,29.59,0,0,1,242.89,416.15Z"/><g id="plant_note-taking-1-3"><path class="cls-2_note-taking-1-3" d="M194.74,213.5a121.7,121.7,0,0,0,12.85,3.44,64.53,64.53,0,0,0,8.07.93l4.52-3.07,31.28-23.26-23.92-7.95-56.62,19.76C177.92,208.45,186.55,211,194.74,213.5Z"/><path class="cls-3_note-taking-1-3 targetColor" d="M238.92,166.27c-5.63-.49-11.58-2.2-15.75-6.06V177a17.37,17.37,0,0,0,17.38,17.35h0a17.37,17.37,0,0,0,17.37-17.37h0v-17C252,162.34,245.24,166.82,238.92,166.27Z" style="fill: rgb(26, 167, 212);"/><ellipse class="cls-4_note-taking-1-3" cx="240.52" cy="160.11" rx="17.37" ry="9.2"/><path class="cls-4_note-taking-1-3" d="M240.56,161.65s-11.81-1.73-14.93-20.83C225.59,140.83,235.67,146.39,240.56,161.65Z"/><path class="cls-4_note-taking-1-3" d="M242.26,159.23s-13.55-24.31,0-40.62A68.13,68.13,0,0,1,242.26,159.23Z"/><path class="cls-4_note-taking-1-3" d="M240.56,144s-11.81-1.74-14.93-20.84C225.59,123.13,235.67,128.68,240.56,144Z"/><path class="cls-4_note-taking-1-3" d="M241.91,151.74s-3-11.56,13.45-21.82C255.36,129.92,254.18,141.35,241.91,151.74Z"/><ellipse class="cls-5_note-taking-1-3" cx="240.52" cy="160.11" rx="17.37" ry="9.2"/><path class="cls-4_note-taking-1-3" d="M240.56,161.65s-11.81-1.73-14.93-20.83C225.59,140.83,235.67,146.39,240.56,161.65Z"/><path class="cls-4_note-taking-1-3" d="M242.26,159.23s-13.55-24.31,0-40.62A68.13,68.13,0,0,1,242.26,159.23Z"/><path class="cls-4_note-taking-1-3" d="M240.56,144s-11.81-1.74-14.93-20.84C225.59,123.13,235.67,128.68,240.56,144Z"/><path class="cls-4_note-taking-1-3" d="M241.91,151.74s-3-11.56,13.45-21.82C255.36,129.92,254.18,141.35,241.91,151.74Z"/></g><g id="notes_note-taking-1-3"><path class="cls-6_note-taking-1-3" d="M138.22,327.91c4.24,1.34,11.69,10,16,10.85,2.69.54,73.82,47.77,76.51,48l64.84-40.89-84-41.59L188.1,283.07l-57,32.91C138.11,321.1,130,325.41,138.22,327.91Z"/><path class="cls-7_note-taking-1-3" d="M166.86,301.55l99,57.18a7.45,7.45,0,0,0,7.45,0l151-87.21a4.05,4.05,0,0,0,0-7.07L323.56,206.34a4,4,0,0,0-4,0L166.86,294.47a4,4,0,0,0-1.62,5.47A4.11,4.11,0,0,0,166.86,301.55Z"/><polyline class="cls-8_note-taking-1-3" points="170.32 275.82 170.32 294.91 271.13 353.12 420.11 264.13 420.11 247.99"/><polygon class="cls-9_note-taking-1-3" points="170.32 275.82 271.13 334.01 420.11 247.99 319.22 189.81 170.32 275.82"/><path class="cls-5_note-taking-1-3" d="M412.66,239.29c-3.53-.23-5.67,3.09-5.06,6.32.16.85,1.45.48,1.34-.37a3.73,3.73,0,0,1,2.7-4.52,3.44,3.44,0,0,1,.63-.1,3,3,0,0,1,3.12,2.86,3,3,0,0,1-.33,1.51c-.39.77.77,1.45,1.16.67a4.33,4.33,0,0,0-1.8-5.87A4.05,4.05,0,0,0,412.66,239.29Z"/><path class="cls-5_note-taking-1-3" d="M395.84,229.73c-3.52-.22-5.66,3.1-5.06,6.33.16.84,1.46.48,1.35-.37a3.71,3.71,0,0,1,2.7-4.52,3.21,3.21,0,0,1,.62-.1,3,3,0,0,1,3.13,2.86,3.06,3.06,0,0,1-.33,1.51c-.39.76.76,1.45,1.16.67a4.35,4.35,0,0,0-3.57-6.38Z"/><path class="cls-5_note-taking-1-3" d="M378.27,218.88c-3.52-.23-5.66,3.09-5.06,6.32.17.85,1.46.49,1.35-.36a3.73,3.73,0,0,1,2.7-4.53,4.22,4.22,0,0,1,.62-.1,3,3,0,0,1,2.8,4.37c-.39.77.77,1.45,1.16.67a4.34,4.34,0,0,0-1.8-5.87A4.39,4.39,0,0,0,378.27,218.88Z"/><path class="cls-5_note-taking-1-3" d="M362.76,209.33c-3.52-.23-5.66,3.09-5.06,6.32.17.85,1.46.48,1.35-.36a3.72,3.72,0,0,1,2.7-4.53,4.22,4.22,0,0,1,.62-.1,3,3,0,0,1,2.8,4.37c-.39.77.77,1.45,1.16.67a4.34,4.34,0,0,0-1.8-5.87A4.39,4.39,0,0,0,362.76,209.33Z"/><path class="cls-5_note-taking-1-3" d="M348.5,202.37c-3.52-.23-5.66,3.1-5.06,6.33.17.84,1.46.48,1.35-.37a3.72,3.72,0,0,1,2.7-4.52,3.22,3.22,0,0,1,.62-.11,3,3,0,0,1,3.13,2.87,3.06,3.06,0,0,1-.33,1.51c-.39.76.77,1.45,1.16.67a4.35,4.35,0,0,0-3.57-6.38Z"/><path class="cls-5_note-taking-1-3" d="M331.61,191.57c-3.53-.23-5.67,3.09-5.06,6.32.16.85,1.45.49,1.34-.36a3.74,3.74,0,0,1,2.7-4.53,4.58,4.58,0,0,1,.63-.1,3,3,0,0,1,2.79,4.37c-.39.77.77,1.46,1.16.68a4.35,4.35,0,0,0-3.56-6.38Z"/><ellipse class="cls-5_note-taking-1-3" cx="407.61" cy="245.61" rx="3.59" ry="2.11"/><ellipse class="cls-5_note-taking-1-3" cx="390.69" cy="236.54" rx="3.59" ry="2.11"/><ellipse class="cls-5_note-taking-1-3" cx="373.11" cy="225.69" rx="3.59" ry="2.11"/><ellipse class="cls-5_note-taking-1-3" cx="357.6" cy="216.13" rx="3.59" ry="2.11"/><ellipse class="cls-5_note-taking-1-3" cx="343.34" cy="208.7" rx="3.59" ry="2.11"/><ellipse class="cls-5_note-taking-1-3" cx="326.45" cy="198.38" rx="3.59" ry="2.11"/><line class="cls-10_note-taking-1-3" x1="298.6" y1="212" x2="380.57" y2="259.56"/><path class="cls-11_note-taking-1-3" d="M298.08,212.88l82,47.55a1,1,0,1,0,1-1.75l-82-47.55a1,1,0,1,0-1,1.75Z"/><line class="cls-10_note-taking-1-3" x1="286.69" y1="219.17" x2="368.67" y2="266.71"/><path class="cls-11_note-taking-1-3" d="M286.18,220l82,47.55a1,1,0,0,0,1-1.75l-82-47.55a1,1,0,0,0-1.38.36,1,1,0,0,0,.36,1.39Z"/><line class="cls-10_note-taking-1-3" x1="275.75" y1="224.08" x2="357.73" y2="271.64"/><path class="cls-11_note-taking-1-3" d="M275.24,225l82,47.55a1,1,0,0,0,1-1.75l-82-47.55a1,1,0,0,0-1,1.75Z"/><line class="cls-10_note-taking-1-3" x1="263.85" y1="231.25" x2="345.84" y2="278.81"/><path class="cls-11_note-taking-1-3" d="M263.34,232.13l82,47.55a1,1,0,1,0,1-1.75l-82-47.55a1,1,0,0,0-1.39.36,1,1,0,0,0,.37,1.39Z"/><line class="cls-10_note-taking-1-3" x1="242.65" y1="245.41" x2="324.64" y2="292.96"/><path class="cls-11_note-taking-1-3" d="M242.14,246.28l82,47.55a1,1,0,0,0,1.39-.36,1,1,0,0,0-.36-1.39l-82-47.55a1,1,0,0,0-1.39.36,1,1,0,0,0,.37,1.39Z"/><line class="cls-10_note-taking-1-3" x1="230.76" y1="252.56" x2="312.73" y2="300.12"/><path class="cls-11_note-taking-1-3" d="M230.25,253.44l82,47.55a1,1,0,1,0,1-1.75l-82-47.55a1,1,0,1,0-1,1.75Z"/><line class="cls-10_note-taking-1-3" x1="219.81" y1="257.49" x2="301.8" y2="305.04"/><path class="cls-11_note-taking-1-3" d="M219.3,258.36l82,47.55a1,1,0,1,0,1-1.75l-81.91-47.55a1,1,0,0,0-1,1.75Z"/><line class="cls-10_note-taking-1-3" x1="210.93" y1="263.26" x2="292.92" y2="310.8"/><path class="cls-11_note-taking-1-3" d="M210.42,264.12l82,47.55a1,1,0,0,0,1-1.75l-82-47.55a1,1,0,0,0-1.39.36,1,1,0,0,0,.37,1.39Z"/><path class="cls-5_note-taking-1-3" d="M328,251.62l-3.85-2.07c.43-1.06-.78-1.79-1.65-1.66L317,243.72a1.34,1.34,0,0,0-1.34-2.32l-5.21-1,.29-.14a1.35,1.35,0,0,0-1-2.46l-.32.14h-.08a6,6,0,0,0-.56.3,15,15,0,0,1-7.61,1.91c3.11-2.14,4.79-4.45.24-7.8l-.4-.27a22.32,22.32,0,0,0,5.9-10.47c3.87-16.71-22-6.17-27.91-2-1.34,1,0,3.33,1.35,2.33a36.57,36.57,0,0,1,11.7-5.7c2.17-.58,5.38-1.82,7.39-1.11a6.48,6.48,0,0,1,3.94,8.26,5.79,5.79,0,0,1-.29.68,24.59,24.59,0,0,1-4.88,6.58c-5-1.92-11.07-1.09-16.14,0-4.56,1-17.19,3-19,8.5-1.34,4.25,3.33,5.19,6.43,5.23a48.12,48.12,0,0,0,28-9.21c0,.18.08.37.09.59,2,2.14,1.6,3.51-1.13,4.11a1.35,1.35,0,0,0-.49,1.84,1.38,1.38,0,0,0,.81.63,18.41,18.41,0,0,0,10.27-.44,4.46,4.46,0,0,0,.31,1.08c1.11,2.61,3.52,2.8,5.87,2.21a4.74,4.74,0,0,0,.69,2.77c1.53,2.62,4.43,3,7.17,2.78-.08,3.38,4.4,4,7.59,3.49C330.44,254,329.71,251.35,328,251.62Zm-57.33-10c-2.17.8-3,.19-2.42-1.85q-1-2.52,1.84-2.69c1.56-1.19,4.25-1.67,6.15-2.26a55.27,55.27,0,0,1,12.45-2.59,26.14,26.14,0,0,1,4.15,0,4.61,4.61,0,0,1,3.08.32A41.57,41.57,0,0,1,283,239.41c-3.46,1.15-8.74,3.08-12.35,2.24Z"/><ellipse class="cls-3_note-taking-1-3 targetColor" cx="224.83" cy="219.86" rx="9" ry="3.81" transform="translate(-89.26 204.67) rotate(-41.59)" style="fill: rgb(26, 167, 212);"/></g><g id="person_note-taking-1-3"><path class="cls-12_note-taking-1-3" d="M162.18,169l8.07.95s6.46-1.35,7.9,1.18c.39.69-6.42,1.65-6.42,1.65s9.8,2.59,9.21,4.52-7.11,5.67-8.36,6-13.7-9.42-13.7-9.42"/><g id="person-2_note-taking-1-3" data-name="person"><path class="cls-5_note-taking-1-3" d="M147.54,84.59s-15.29,7.84-22.4,11.51-28.06,10.35-28.25,18.57S104,125.56,100,131.78s-2.69,17.69,6.73,20,44.13-37.42,44.13-37.42"/><path class="cls-5_note-taking-1-3" d="M123.53,270.09s-.22,10.88,1.09,11.54,9.5,11.37,10.07,13.05c1.9,5.58-4.72,5.15-8.42,3.27s-13.58-9.42-14-12.11-3.53-18.94-3.53-18.94"/><path class="cls-5_note-taking-1-3" d="M139,260.62s-.22,10.88,1.09,11.54,11.07,10.37,11.76,12c2.13,5.18-4.67,5.39-8.37,3.5s-15.32-8.67-15.75-11.32-3.47-18.92-3.47-18.92"/><path class="cls-3_note-taking-1-3 targetColor" d="M97.2,155.87s-7.8,12.21-6.72,23.18,12,98.2,19.06,97.26,11.26.12,14.94-9.11c0,0,11.84,2.69,15.6-6.73,0,0-2.86-81.79-9.58-94.61S97.2,155.87,97.2,155.87Z" style="fill: rgb(26, 167, 212);"/><path class="cls-12_note-taking-1-3" d="M198.07,123.83a36.6,36.6,0,0,0-6-1,32.9,32.9,0,0,1,6.11.63c2.1.34,2.34-3,.26-3.31l-1-.16a1.72,1.72,0,0,0-.25-2.42,1.69,1.69,0,0,0-.82-.36,32.47,32.47,0,0,0-13.71,1.25,27.17,27.17,0,0,0-.1-5,1.39,1.39,0,0,0-.32-.78,1.73,1.73,0,0,0-3.28.44c-.46,2.69-.32,5.39-.77,8a10.61,10.61,0,0,1-.36,1.34c-2.05,2.12-4.05,4.26-6,6.44-1.34,1.55,1.17,3.38,2.61,2a2,2,0,0,0,.89.72l-.24.33a1.49,1.49,0,0,0-.18,1.48l-.23.23c-1.52,1.48.61,4,2.13,2.54l.52-.54a1.35,1.35,0,0,0,1.86-.4.64.64,0,0,0,.08-.14,15.69,15.69,0,0,1,5.14-5.11l.65-.44a20.69,20.69,0,0,1,5.56-1.09c1.35.36,2.82.78,4.2,1.22a1.66,1.66,0,1,0,1.35-3l.9.21C199,127.47,200.14,124.35,198.07,123.83Z"/><path class="cls-5_note-taking-1-3" d="M197.66,119.56a36.29,36.29,0,0,0-6.59-.29c-.54,0-.6.87,0,.84a36.3,36.3,0,0,1,6.59.3C198.15,120.48,198.2,119.63,197.66,119.56Z"/><path class="cls-5_note-taking-1-3" d="M198,122.91a45.77,45.77,0,0,0-7-.5.43.43,0,1,0,0,.85,44.55,44.55,0,0,1,7,.5C198.46,123.84,198.51,123,198,122.91Z"/><path class="cls-5_note-taking-1-3" d="M188.64,124a8.63,8.63,0,0,0-7.62,1.44c-.45.29.1.94.54.64a7.73,7.73,0,0,1,6.73-1.34.42.42,0,0,0,.5-.3A.41.41,0,0,0,188.64,124Z"/><path class="cls-5_note-taking-1-3" d="M190,123.83a5.93,5.93,0,0,0-3.17-4.58c-.5-.21-.8.59-.28.8a5.06,5.06,0,0,1,2.69,3.92C189.27,124.51,190.1,124.36,190,123.83Z"/><path class="cls-5_note-taking-1-3" d="M196.78,126a18.06,18.06,0,0,0-5.38-1.46.42.42,0,1,0,0,.84,17.11,17.11,0,0,1,5.19,1.42C197,127,197.27,126.21,196.78,126Z"/><path class="cls-13_note-taking-1-3" d="M160.6,119.47l3.89,23.78s-3,8.87-9.32,10S144,124.83,144,124.83"/><path class="cls-13_note-taking-1-3" d="M141.77,106.73c-.87-.22-8.15,1-14.46,3S93.6,151.87,97.2,155.87s20.52,12,30.67,9.78,33.84-41.7,32.73-46.2c-2.54-10.29-10.49-10.31-10.49-10.31"/><path class="cls-12_note-taking-1-3" d="M159.85,96.15s1.84,15.08-3.62,17.8-11.38-2.93-13.14-6.21S139.46,87.87,149.71,89,159.85,96.15,159.85,96.15Z"/><path class="cls-5_note-taking-1-3" d="M160.13,86.21c-4.17-1.45-9-4.58-16.41.31S134,105,142.86,108.33l1.25-3.67a5.43,5.43,0,0,1-.63-.88,4.33,4.33,0,0,1-.7-2.2,4.43,4.43,0,0,1,.11-2.37v-.27h17.74a3.61,3.61,0,0,0,3.09-1.47C166.05,95.74,165.39,88,160.13,86.21Z"/><path class="cls-13_note-taking-1-3" d="M175.86,122.92c-5.17,3.22-15.69,12.56-15.69,12.56L152.51,152s4.49,6.35,12.87,1.88c5.94-3.17,15.33-14.72,19.83-21.59A17.1,17.1,0,0,0,175.86,122.92Z"/><path class="cls-5_note-taking-1-3" d="M119.4,181.2c-.11-1.13-1.88-1.13-1.78,0l8.08,85.9c.1,1.13,1.88,1.13,1.77,0Z"/><path class="cls-13_note-taking-1-3" d="M146.68,150.78s-8.81-7.33-8.81-10.53,4.57-26.73-3-28.6S121.16,127.57,119,138s22.66,29.77,22.66,29.77"/><path class="cls-5_note-taking-1-3" d="M146,95.74c-.46-5.14-8.53-5.18-8.07,0,.27,3.06.74,6.48-.22,9.41a9.48,9.48,0,0,1-2.29,4h-.74a12.08,12.08,0,0,0-2.69-.13c-5.19,0-5.2,8.07,0,8.07,2.47,0,4.74,1.09,7-.37a17.19,17.19,0,0,0,4.92-5.7C146.56,106.28,146.4,100.93,146,95.74Z"/><path class="cls-3_note-taking-1-3 targetColor" d="M100,92.79c.82-6.27,6.58-11.53,12.76-12.72l118.77,133.8-13.45,11.95Z" style="fill: rgb(26, 167, 212);"/><path class="cls-9_note-taking-1-3" d="M218.82,226.63s-1.77-4.47,3.82-9,9.13-3.51,9.13-3.51l17.08,31.12Z"/><path class="cls-5_note-taking-1-3" d="M248.85,245.23l-13.95-8.65s.52-4.76,6.27-5.38Z"/><path class="cls-13_note-taking-1-3" d="M166.05,168.3c-3.17-4.49-9.78-8.89-15.16-14-7.3-6-14.93-13.72-20.82-5.45-6.55,9.2,19.19,26.46,26.69,31.21A23.87,23.87,0,0,0,166.05,168.3Z"/><path class="cls-5_note-taking-1-3" d="M118.34,137.08a30.87,30.87,0,0,0-.78,13.65c.66,3.44,1.64,6.81,2.57,10.2A61.5,61.5,0,0,0,133,162.65S121,149.88,120,144a28,28,0,0,1,0-10.09Z"/><path class="cls-14_note-taking-1-3" d="M95.83,305.71a121.75,121.75,0,0,0,12.85,3.45,66.22,66.22,0,0,0,8.07.92l4.52-3.06,31.28-23.26-23.92-7.95L72,295.54C79,300.67,87.64,303.21,95.83,305.71Z"/></g></g></svg>