<svg width="700" height="400" viewBox="0 0 700 400" fill="none" xmlns="http://www.w3.org/2000/svg">
<g clip-path="url(#clip0_1_2)">
<rect width="700" height="400" fill="url(#paint0_linear_1_2)"/>
<rect x="599.746" y="256.672" width="174" height="29" rx="14.5" transform="rotate(137 599.746 256.672)" fill="url(#paint1_linear_1_2)"/>
<rect x="541.07" y="296.695" width="102.221" height="7.78671" rx="3.89335" transform="rotate(137 541.07 296.695)" fill="url(#paint2_linear_1_2)"/>
<rect x="339" y="372.48" width="134.135" height="7.78671" rx="3.89335" transform="rotate(-43 339 372.48)" fill="url(#paint3_linear_1_2)"/>
<rect x="635.07" y="318.695" width="102.221" height="7.78671" rx="3.89335" transform="rotate(137 635.07 318.695)" fill="url(#paint4_linear_1_2)"/>
<rect x="635.07" y="318.695" width="102.221" height="7.78671" rx="3.89335" transform="rotate(137 635.07 318.695)" fill="url(#paint5_linear_1_2)"/>
<rect x="680.07" y="351.695" width="102.221" height="7.78671" rx="3.89335" transform="rotate(137 680.07 351.695)" fill="url(#paint6_linear_1_2)"/>
<rect x="635.07" y="318.695" width="102.221" height="7.78671" rx="3.89335" transform="rotate(137 635.07 318.695)" fill="url(#paint7_linear_1_2)"/>
<rect x="555.07" y="346.695" width="102.221" height="7.78671" rx="3.89335" transform="rotate(137 555.07 346.695)" fill="url(#paint8_linear_1_2)"/>
<rect x="417.746" y="362.672" width="174" height="29" rx="14.5" transform="rotate(137 417.746 362.672)" fill="url(#paint9_linear_1_2)"/>
<rect x="439.61" y="255.672" width="216" height="29" rx="14.5" transform="rotate(137 439.61 255.672)" fill="url(#paint10_linear_1_2)"/>
<rect x="173.081" y="318.672" width="194" height="29" rx="14.5" transform="rotate(137 173.081 318.672)" fill="url(#paint11_linear_1_2)"/>
<rect x="166.668" y="227.672" width="250" height="29" rx="14.5" transform="rotate(137 166.668 227.672)" fill="url(#paint12_linear_1_2)"/>
<rect x="87" y="368.336" width="164.716" height="7.78671" rx="3.89335" transform="rotate(-43 87 368.336)" fill="url(#paint13_linear_1_2)"/>
<rect x="236" y="412.48" width="134.135" height="7.78671" rx="3.89335" transform="rotate(-43 236 412.48)" fill="url(#paint14_linear_1_2)"/>
<rect x="83" y="277.48" width="134.135" height="7.78671" rx="3.89335" transform="rotate(-43 83 277.48)" fill="url(#paint15_linear_1_2)"/>
<rect x="173" y="404.48" width="134.135" height="7.78671" rx="3.89335" transform="rotate(-43 173 404.48)" fill="url(#paint16_linear_1_2)"/>
<rect x="52" y="355.48" width="100.095" height="7.78671" rx="3.89335" transform="rotate(-43 52 355.48)" fill="url(#paint17_linear_1_2)"/>
<rect x="82" y="436.48" width="134.135" height="7.78671" rx="3.89335" transform="rotate(-43 82 436.48)" fill="url(#paint18_linear_1_2)"/>
<rect x="6" y="271.48" width="134.135" height="7.78671" rx="3.89335" transform="rotate(-43 6 271.48)" fill="url(#paint19_linear_1_2)"/>
<g style="mix-blend-mode:multiply">
<circle cx="565" cy="93" r="50" fill="url(#paint20_linear_1_2)"/>
</g>
<g clip-path="url(#clip1_1_2)" filter="url(#filter0_di_1_2)">
<path d="M388.625 119.807H348.904C348.035 119.809 347.176 119.614 346.394 119.234C345.611 118.855 344.925 118.302 344.389 117.618C343.842 116.928 343.46 116.122 343.273 115.261C343.085 114.401 343.096 113.509 343.305 112.653C346.965 97.3198 346.965 81.3399 343.304 66.0065C343.096 65.151 343.085 64.2591 343.273 63.3988C343.461 62.5384 343.842 61.7323 344.389 61.0417C344.925 60.3575 345.611 59.8047 346.394 59.4255C347.176 59.0462 348.035 58.8505 348.904 58.8532H388.625C389.996 58.8571 391.321 59.3477 392.365 60.2376C393.408 61.1275 394.102 62.3589 394.323 63.7125C396.937 80.6908 396.937 97.9692 394.323 114.948C394.102 116.301 393.408 117.532 392.365 118.422C391.321 119.312 389.996 119.803 388.625 119.807Z" fill="#E6E6E6"/>
<path d="M348.904 61.8419C348.487 61.8405 348.074 61.9343 347.698 62.1163C347.323 62.2983 346.993 62.5636 346.735 62.8921C346.47 63.2286 346.284 63.6213 346.194 64.0402C346.103 64.4592 346.108 64.8933 346.21 65.3097C349.981 81.1013 349.981 97.5587 346.211 113.35C346.109 113.767 346.103 114.201 346.194 114.62C346.284 115.038 346.47 115.431 346.735 115.767C346.993 116.096 347.323 116.362 347.698 116.544C348.074 116.726 348.487 116.82 348.904 116.818H388.625C389.283 116.818 389.92 116.585 390.423 116.159C390.925 115.733 391.261 115.143 391.369 114.493C393.936 97.8161 393.936 80.8439 391.369 64.1666C391.261 63.5169 390.925 62.9266 390.423 62.5009C389.92 62.0752 389.283 61.8416 388.625 61.8419L348.904 61.8419Z" fill="white"/>
<path d="M379.957 76.2128H359.113C358.321 76.2119 357.561 75.8968 357.001 75.3365C356.441 74.7762 356.126 74.0166 356.125 73.2242V72.0563C356.126 71.264 356.441 70.5043 357.001 69.9441C357.561 69.3838 358.321 69.0686 359.113 69.0678H379.957C380.749 69.0686 381.509 69.3838 382.069 69.9441C382.629 70.5043 382.944 71.264 382.945 72.0563V73.2242C382.944 74.0166 382.629 74.7762 382.069 75.3365C381.509 75.8968 380.749 76.2119 379.957 76.2128Z" fill="#E6E6E6"/>
<path d="M379.957 90.9698H359.113C358.321 90.9689 357.561 90.6538 357.001 90.0935C356.441 89.5332 356.126 88.7736 356.125 87.9812V86.8133C356.126 86.021 356.441 85.2613 357.001 84.701C357.561 84.1408 358.321 83.8256 359.113 83.8248H379.957C380.749 83.8256 381.509 84.1408 382.069 84.701C382.629 85.2613 382.944 86.021 382.945 86.8133V87.9812C382.944 88.7736 382.629 89.5332 382.069 90.0935C381.509 90.6538 380.749 90.9689 379.957 90.9698Z" fill="#E6E6E6"/>
<path d="M379.957 105.727H359.113C358.321 105.726 357.561 105.411 357.001 104.85C356.441 104.29 356.126 103.531 356.125 102.738V101.57C356.126 100.778 356.441 100.018 357.001 99.458C357.561 98.8977 358.321 98.5826 359.113 98.5817H379.957C380.749 98.5826 381.509 98.8977 382.069 99.458C382.629 100.018 382.944 100.778 382.945 101.57V102.738C382.944 103.531 382.629 104.29 382.069 104.85C381.509 105.411 380.749 105.726 379.957 105.727Z" fill="#E6E6E6"/>
<path d="M463.341 157.663H423.621C422.752 157.666 421.893 157.47 421.11 157.091C420.328 156.712 419.642 156.159 419.106 155.475C418.559 154.784 418.177 153.978 417.989 153.118C417.802 152.257 417.813 151.365 418.021 150.51C421.682 135.176 421.682 119.196 418.021 103.863C417.812 103.008 417.802 102.116 417.989 101.255C418.177 100.395 418.559 99.5888 419.105 98.8982C419.642 98.214 420.328 97.6613 421.11 97.282C421.893 96.9028 422.752 96.7071 423.621 96.7097H463.341C464.713 96.7137 466.038 97.2043 467.082 98.0942C468.125 98.9841 468.819 100.215 469.039 101.569C471.653 118.547 471.653 135.826 469.039 152.804C468.819 154.158 468.125 155.389 467.082 156.279C466.038 157.169 464.713 157.659 463.341 157.663Z" fill="#E6E6E6"/>
<path d="M423.621 99.6984C423.204 99.697 422.791 99.7909 422.415 99.9729C422.04 100.155 421.71 100.42 421.452 100.749C421.187 101.085 421.001 101.478 420.91 101.897C420.82 102.316 420.825 102.75 420.927 103.166C424.698 118.958 424.698 135.415 420.928 151.207C420.825 151.623 420.82 152.057 420.911 152.476C421.001 152.895 421.187 153.288 421.452 153.624C421.71 153.953 422.04 154.218 422.415 154.4C422.791 154.582 423.204 154.676 423.621 154.675H463.342C464 154.675 464.637 154.441 465.14 154.016C465.642 153.59 465.978 153 466.086 152.35C468.653 135.673 468.653 118.701 466.086 102.023C465.978 101.373 465.642 100.783 465.14 100.357C464.637 99.9318 464 99.6982 463.342 99.6984L423.621 99.6984Z" fill="white"/>
<path d="M384.142 200.75H344.421C343.514 200.753 342.618 200.549 341.802 200.153C340.985 199.757 340.27 199.181 339.71 198.467C339.14 197.747 338.742 196.906 338.546 196.009C338.35 195.112 338.362 194.182 338.579 193.289C342.231 177.994 342.231 162.054 338.579 146.759C338.361 145.867 338.35 144.937 338.546 144.04C338.742 143.143 339.14 142.302 339.71 141.582C340.27 140.868 340.985 140.291 341.802 139.896C342.618 139.5 343.514 139.296 344.421 139.298H384.142C385.572 139.303 386.955 139.815 388.044 140.743C389.132 141.672 389.856 142.957 390.086 144.369C392.704 161.372 392.704 178.676 390.086 195.68C389.856 197.092 389.132 198.377 388.044 199.305C386.955 200.234 385.572 200.746 384.142 200.75Z" fill="#F2F2F2"/>
<path d="M454.674 121.541H433.83C433.038 121.54 432.278 121.225 431.718 120.665C431.158 120.105 430.842 119.345 430.842 118.553V117.385C430.842 116.592 431.158 115.833 431.718 115.272C432.278 114.712 433.038 114.397 433.83 114.396H454.674C455.466 114.397 456.226 114.712 456.786 115.272C457.346 115.833 457.661 116.592 457.662 117.385V118.553C457.661 119.345 457.346 120.105 456.786 120.665C456.226 121.225 455.466 121.54 454.674 121.541Z" fill="#E6E6E6"/>
<path d="M454.674 136.298H433.83C433.038 136.297 432.278 135.982 431.718 135.422C431.158 134.861 430.842 134.102 430.842 133.309V132.142C430.842 131.349 431.158 130.59 431.718 130.029C432.278 129.469 433.038 129.154 433.83 129.153H454.674C455.466 129.154 456.226 129.469 456.786 130.029C457.346 130.59 457.661 131.349 457.662 132.142V133.309C457.661 134.102 457.346 134.861 456.786 135.422C456.226 135.982 455.466 136.297 454.674 136.298Z" fill="#E6E6E6"/>
<path d="M364.393 181.275C370.72 181.275 375.849 176.146 375.849 169.819C375.849 163.491 370.72 158.362 364.393 158.362C358.065 158.362 352.936 163.491 352.936 169.819C352.936 176.146 358.065 181.275 364.393 181.275Z" fill="white"/>
<path d="M369.872 168.324H365.887V164.34C365.887 163.943 365.729 163.563 365.449 163.283C365.169 163.003 364.789 162.845 364.393 162.845C363.996 162.845 363.616 163.003 363.336 163.283C363.056 163.563 362.898 163.943 362.898 164.34V168.324H358.913C358.517 168.324 358.137 168.482 357.857 168.762C357.576 169.042 357.419 169.422 357.419 169.819C357.419 170.215 357.576 170.595 357.857 170.875C358.137 171.156 358.517 171.313 358.913 171.313H362.898V175.298C362.898 175.694 363.056 176.074 363.336 176.355C363.616 176.635 363.996 176.792 364.393 176.792C364.789 176.792 365.169 176.635 365.449 176.355C365.729 176.074 365.887 175.694 365.887 175.298V171.313H369.872C370.268 171.313 370.648 171.156 370.928 170.875C371.209 170.595 371.366 170.215 371.366 169.819C371.366 169.422 371.209 169.042 370.928 168.762C370.648 168.482 370.268 168.324 369.872 168.324Z" fill="#E6E6E6"/>
<path d="M378.838 64.4679H357.917C357.323 64.4672 356.753 64.2309 356.333 63.8107C355.913 63.3904 355.676 62.8207 355.676 62.2264V58.2415C355.676 57.6472 355.913 57.0775 356.333 56.6573C356.753 56.237 357.323 56.0007 357.917 56H378.838C379.432 56.0007 380.002 56.237 380.422 56.6573C380.842 57.0775 381.079 57.6472 381.079 58.2415V62.2264C381.079 62.8207 380.842 63.3904 380.422 63.8107C380.002 64.2309 379.432 64.4672 378.838 64.4679Z" fill="#CCCCCC"/>
<path d="M454.551 102.823H433.63C433.036 102.822 432.466 102.586 432.046 102.165C431.626 101.745 431.389 101.175 431.389 100.581V96.5962C431.389 96.0019 431.626 95.4322 432.046 95.0119C432.466 94.5917 433.036 94.3553 433.63 94.3547H454.551C455.145 94.3553 455.715 94.5917 456.135 95.0119C456.555 95.4322 456.792 96.0019 456.793 96.5962V100.581C456.792 101.175 456.555 101.745 456.135 102.165C455.715 102.586 455.145 102.822 454.551 102.823Z" fill="#CCCCCC"/>
<path d="M273.131 290.642H279.238L281.147 267.087H273.13L273.131 290.642Z" fill="#FFB8B8"/>
<path d="M271.573 288.648L283.6 288.647H283.6C284.607 288.647 285.603 288.845 286.533 289.231C287.463 289.616 288.308 290.18 289.02 290.892C289.731 291.604 290.296 292.449 290.681 293.378C291.066 294.308 291.264 295.305 291.264 296.311V296.56L271.574 296.561L271.573 288.648Z" fill="#2F2E41"/>
<path d="M240.255 290.642H246.362L249.268 267.087H240.254L240.255 290.642Z" fill="#FFB8B8"/>
<path d="M238.698 288.648L250.724 288.647H250.725C251.731 288.647 252.728 288.845 253.658 289.231C254.588 289.616 255.432 290.18 256.144 290.892C256.856 291.604 257.42 292.449 257.806 293.378C258.191 294.308 258.389 295.305 258.389 296.311V296.56L238.698 296.561L238.698 288.648Z" fill="#2F2E41"/>
<path d="M241.339 283.2C240.716 283.2 240.116 282.966 239.658 282.544C239.412 282.319 239.214 282.048 239.076 281.745C238.937 281.442 238.862 281.115 238.853 280.782L236.404 193.008L271.178 201.701L281.907 233.888C283.29 238.028 283.889 242.391 283.673 246.751L282.341 277.951C282.31 278.59 282.035 279.193 281.572 279.635C281.108 280.076 280.493 280.322 279.853 280.322H274.02C273.418 280.319 272.838 280.1 272.384 279.704C271.931 279.308 271.636 278.761 271.552 278.165L267.384 243.725C267.019 241.038 266.08 238.462 264.628 236.171L256.425 223.183C256.37 223.096 256.289 223.028 256.195 222.989C256.1 222.949 255.995 222.94 255.895 222.963C255.795 222.985 255.704 223.038 255.635 223.114C255.566 223.19 255.522 223.285 255.509 223.387L249.071 280.714C249.002 281.295 248.73 281.834 248.303 282.234C247.876 282.635 247.321 282.872 246.737 282.904L241.481 283.196C241.433 283.199 241.386 283.2 241.339 283.2Z" fill="#2F2E41"/>
<path d="M265.391 136.18C272.148 136.18 277.625 130.702 277.625 123.946C277.625 117.189 272.148 111.711 265.391 111.711C258.634 111.711 253.157 117.189 253.157 123.946C253.157 130.702 258.634 136.18 265.391 136.18Z" fill="#FFB8B8"/>
<path d="M271.011 205.271C270.801 205.27 270.591 205.244 270.387 205.191L235.885 196.345C235.268 196.187 234.735 195.799 234.396 195.26C234.057 194.721 233.937 194.073 234.061 193.448L241.984 150.764C242.478 148.297 243.563 145.987 245.146 144.031C246.73 142.075 248.764 140.533 251.075 139.537C253.326 138.541 255.788 138.114 258.244 138.294C260.699 138.474 263.072 139.256 265.154 140.571C265.637 140.872 266.124 141.201 266.6 141.548C268.517 142.962 270.081 144.801 271.168 146.921C272.255 149.041 272.836 151.384 272.866 153.766L273.496 202.745C273.5 203.074 273.439 203.401 273.316 203.707C273.193 204.012 273.011 204.291 272.78 204.526C272.549 204.76 272.274 204.947 271.97 205.075C271.666 205.203 271.341 205.269 271.011 205.271Z" fill="#3C909E"/>
<path d="M239.435 205.773C239.024 205.167 238.75 204.478 238.633 203.756C238.516 203.033 238.56 202.293 238.76 201.589C238.96 200.884 239.312 200.232 239.791 199.679C240.271 199.125 240.866 198.683 241.534 198.384L240 180.651L248.132 185.058L248.342 201.223C248.77 202.379 248.758 203.652 248.31 204.801C247.862 205.949 247.008 206.893 245.91 207.454C244.812 208.015 243.546 208.153 242.353 207.844C241.16 207.534 240.121 206.797 239.435 205.773Z" fill="#FFB8B8"/>
<path d="M242.34 196.039C242.111 196.039 241.882 196.01 241.66 195.953C241.182 195.831 240.746 195.582 240.397 195.233C240.049 194.883 239.802 194.446 239.682 193.967L235.685 178.086C234.289 172.539 234.954 166.673 237.559 161.581L245.931 145.202C246.461 143.241 247.74 141.566 249.492 140.54C251.245 139.513 253.331 139.216 255.3 139.713C256.282 139.961 257.204 140.402 258.014 141.009C258.825 141.616 259.506 142.378 260.02 143.25C260.544 144.135 260.886 145.116 261.028 146.135C261.169 147.153 261.107 148.19 260.843 149.184L248.925 175.836L249.066 191.794C249.07 192.357 248.901 192.907 248.582 193.371C248.262 193.834 247.808 194.189 247.281 194.386L243.292 195.867C242.988 195.981 242.665 196.039 242.34 196.039Z" fill="#3C909E"/>
<path d="M299.392 199.25C298.665 199.166 297.964 198.925 297.34 198.542C296.716 198.158 296.184 197.643 295.78 197.032C295.377 196.421 295.113 195.729 295.006 195.004C294.899 194.28 294.952 193.541 295.162 192.839L280.72 182.434L289.365 179.145L301.754 189.531C302.909 189.961 303.867 190.8 304.445 191.889C305.023 192.978 305.181 194.241 304.89 195.439C304.599 196.637 303.878 197.687 302.865 198.389C301.852 199.091 300.616 199.398 299.392 199.25Z" fill="#FFB8B8"/>
<path d="M291.832 191.651C291.406 191.651 290.986 191.552 290.605 191.362L275.961 184.031C270.846 181.471 266.835 177.14 264.674 171.844L257.721 154.814C256.58 153.133 256.146 151.071 256.511 149.073C256.876 147.075 258.011 145.3 259.673 144.132C260.503 143.548 261.441 143.136 262.432 142.918C263.423 142.701 264.448 142.683 265.446 142.865C266.456 143.047 267.42 143.427 268.282 143.984C269.144 144.54 269.887 145.263 270.467 146.109L282.893 172.528L295.08 182.831C295.509 183.195 295.816 183.682 295.959 184.227C296.102 184.771 296.074 185.347 295.88 185.875L294.401 189.864C294.207 190.387 293.859 190.839 293.401 191.157C292.941 191.479 292.393 191.651 291.832 191.651Z" fill="#3C909E"/>
<path d="M262.822 136.367C263.472 136.651 264.803 131.472 264.207 130.436C263.32 128.895 263.373 128.906 262.784 127.887C262.195 126.868 262.063 125.473 262.826 124.576C263.588 123.679 265.352 123.798 265.7 124.922C265.476 122.787 267.589 121.07 269.681 120.587C271.774 120.105 273.981 120.404 276.086 119.975C278.528 119.477 281.068 117.43 280.094 114.745C279.927 114.297 279.676 113.886 279.356 113.532C278.231 112.266 276.656 111.726 275.116 111.203C271.913 110.116 268.623 109.016 265.243 109.136C262.458 109.281 259.775 110.236 257.524 111.882C255.273 113.528 253.55 115.795 252.567 118.405C252.335 119.058 252.154 119.728 252.028 120.41C250.868 126.649 254.49 132.802 260.374 135.178L262.822 136.367Z" fill="#2F2E41"/>
<path opacity="0.2" d="M248.377 192.156L248.654 175.753L257.343 158.284L250.369 176.216L248.377 192.156Z" fill="black"/>
<path d="M327.167 233.319L290.486 218.079C289.682 217.748 288.965 217.238 288.387 216.587C287.81 215.937 287.389 215.163 287.156 214.326C286.916 213.478 286.873 212.587 287.03 211.721C287.186 210.854 287.539 210.035 288.06 209.325C297.324 196.569 303.455 181.813 305.957 166.248C306.093 165.378 306.425 164.55 306.929 163.828C307.432 163.105 308.094 162.507 308.863 162.079C309.622 161.653 310.467 161.406 311.335 161.356C312.203 161.306 313.071 161.455 313.873 161.791L350.554 177.031C351.818 177.561 352.854 178.522 353.476 179.744C354.099 180.967 354.267 182.37 353.951 183.704C349.851 200.386 343.221 216.342 334.293 231.018C333.57 232.184 332.457 233.055 331.152 233.476C329.847 233.897 328.435 233.842 327.167 233.319Z" fill="#E6E6E6"/>
<path d="M312.727 164.551C312.342 164.389 311.925 164.318 311.508 164.342C311.091 164.365 310.685 164.484 310.321 164.688C309.946 164.897 309.625 165.189 309.38 165.541C309.135 165.893 308.974 166.296 308.908 166.72C306.331 182.749 300.017 197.947 290.476 211.083C290.222 211.429 290.05 211.827 289.973 212.249C289.897 212.671 289.917 213.104 290.033 213.517C290.145 213.919 290.348 214.291 290.625 214.603C290.902 214.916 291.247 215.16 291.633 215.319L328.313 230.559C328.921 230.812 329.6 230.841 330.227 230.641C330.854 230.44 331.39 230.024 331.739 229.465C340.509 215.05 347.021 199.377 351.049 182.99C351.198 182.349 351.115 181.675 350.815 181.089C350.514 180.503 350.015 180.043 349.407 179.791L312.727 164.551Z" fill="white"/>
<path d="M332.257 198.476L313.009 190.479C312.278 190.174 311.697 189.591 311.395 188.859C311.092 188.127 311.093 187.304 311.396 186.572L311.844 185.494C312.149 184.762 312.731 184.182 313.464 183.879C314.196 183.577 315.018 183.577 315.751 183.881L334.999 191.878C335.73 192.183 336.311 192.765 336.613 193.497C336.916 194.23 336.915 195.052 336.612 195.784L336.164 196.863C335.859 197.594 335.277 198.175 334.544 198.477C333.812 198.78 332.989 198.779 332.257 198.476Z" fill="#3C909E"/>
<path d="M326.595 212.103L307.347 204.106C306.616 203.801 306.035 203.219 305.733 202.486C305.43 201.754 305.431 200.932 305.734 200.2L306.182 199.121C306.487 198.39 307.069 197.809 307.802 197.507C308.534 197.204 309.356 197.205 310.088 197.508L329.337 205.505C330.068 205.81 330.649 206.393 330.951 207.125C331.254 207.857 331.253 208.68 330.95 209.412L330.502 210.49C330.197 211.222 329.615 211.802 328.882 212.105C328.15 212.407 327.327 212.407 326.595 212.103Z" fill="#3C909E"/>
<path d="M339.97 179.324C339.682 179.324 339.397 179.268 339.13 179.159L319.734 171.317C319.184 171.094 318.744 170.661 318.512 170.114C318.28 169.567 318.274 168.951 318.496 168.399L319.99 164.705C320.213 164.154 320.646 163.714 321.193 163.482C321.74 163.25 322.357 163.244 322.908 163.467L342.304 171.309C342.854 171.532 343.294 171.965 343.526 172.512C343.758 173.059 343.764 173.676 343.542 174.227L342.048 177.921C341.88 178.335 341.593 178.689 341.223 178.939C340.853 179.189 340.417 179.323 339.97 179.324Z" fill="#CCCCCC"/>
<path d="M299.234 296.837H229.498C229.366 296.837 229.239 296.785 229.146 296.692C229.052 296.598 229 296.471 229 296.339C229 296.207 229.052 296.081 229.146 295.987C229.239 295.894 229.366 295.841 229.498 295.841H299.234C299.366 295.841 299.493 295.894 299.586 295.987C299.68 296.081 299.732 296.207 299.732 296.339C299.732 296.471 299.68 296.598 299.586 296.692C299.493 296.785 299.366 296.837 299.234 296.837Z" fill="#CCCCCC"/>
</g>
</g>
<defs>
<filter id="filter0_di_1_2" x="221.9" y="49.9" width="256.2" height="255.038" filterUnits="userSpaceOnUse" color-interpolation-filters="sRGB">
<feFlood flood-opacity="0" result="BackgroundImageFix"/>
<feColorMatrix in="SourceAlpha" type="matrix" values="0 0 0 0 0 0 0 0 0 0 0 0 0 0 0 0 0 0 127 0" result="hardAlpha"/>
<feOffset dy="1"/>
<feGaussianBlur stdDeviation="3.55"/>
<feComposite in2="hardAlpha" operator="out"/>
<feColorMatrix type="matrix" values="0 0 0 0 0 0 0 0 0 0 0 0 0 0 0 0 0 0 0.25 0"/>
<feBlend mode="normal" in2="BackgroundImageFix" result="effect1_dropShadow_1_2"/>
<feBlend mode="normal" in="SourceGraphic" in2="effect1_dropShadow_1_2" result="shape"/>
<feColorMatrix in="SourceAlpha" type="matrix" values="0 0 0 0 0 0 0 0 0 0 0 0 0 0 0 0 0 0 127 0" result="hardAlpha"/>
<feOffset dy="4"/>
<feGaussianBlur stdDeviation="4.2"/>
<feComposite in2="hardAlpha" operator="arithmetic" k2="-1" k3="1"/>
<feColorMatrix type="matrix" values="0 0 0 0 0 0 0 0 0 0 0 0 0 0 0 0 0 0 0.25 0"/>
<feBlend mode="normal" in2="shape" result="effect2_innerShadow_1_2"/>
</filter>
<linearGradient id="paint0_linear_1_2" x1="2.49999" y1="3.50002" x2="700" y2="397.034" gradientUnits="userSpaceOnUse">
<stop stop-color="#495FD2"/>
<stop offset="1" stop-color="#79EDF4"/>
</linearGradient>
<linearGradient id="paint1_linear_1_2" x1="773.746" y1="271.172" x2="599.746" y2="271.172" gradientUnits="userSpaceOnUse">
<stop stop-color="#6E89CF"/>
<stop offset="1" stop-color="#6CB6FB"/>
</linearGradient>
<linearGradient id="paint2_linear_1_2" x1="643.292" y1="300.588" x2="541.07" y2="300.588" gradientUnits="userSpaceOnUse">
<stop stop-color="#6E89CF"/>
<stop offset="1" stop-color="#6CB6FB"/>
</linearGradient>
<linearGradient id="paint3_linear_1_2" x1="473.135" y1="376.373" x2="339" y2="376.373" gradientUnits="userSpaceOnUse">
<stop stop-color="#6E89CF"/>
<stop offset="1" stop-color="#85C5FF"/>
</linearGradient>
<linearGradient id="paint4_linear_1_2" x1="737.292" y1="322.588" x2="635.07" y2="322.588" gradientUnits="userSpaceOnUse">
<stop stop-color="#6E89CF"/>
<stop offset="1" stop-color="#6CB6FB"/>
</linearGradient>
<linearGradient id="paint5_linear_1_2" x1="737.292" y1="322.588" x2="635.07" y2="322.588" gradientUnits="userSpaceOnUse">
<stop stop-color="#6E89CF"/>
<stop offset="1" stop-color="#6CB6FB"/>
</linearGradient>
<linearGradient id="paint6_linear_1_2" x1="782.292" y1="355.588" x2="680.07" y2="355.588" gradientUnits="userSpaceOnUse">
<stop stop-color="#6E89CF"/>
<stop offset="1" stop-color="#6CB6FB"/>
</linearGradient>
<linearGradient id="paint7_linear_1_2" x1="737.292" y1="322.588" x2="635.07" y2="322.588" gradientUnits="userSpaceOnUse">
<stop stop-color="#6E89CF"/>
<stop offset="1" stop-color="#6CB6FB"/>
</linearGradient>
<linearGradient id="paint8_linear_1_2" x1="657.292" y1="350.588" x2="555.07" y2="350.588" gradientUnits="userSpaceOnUse">
<stop stop-color="#6E89CF"/>
<stop offset="1" stop-color="#6CB6FB"/>
</linearGradient>
<linearGradient id="paint9_linear_1_2" x1="591.746" y1="377.172" x2="417.746" y2="377.172" gradientUnits="userSpaceOnUse">
<stop stop-color="#6E89CF"/>
<stop offset="1" stop-color="#6CB6FB"/>
</linearGradient>
<linearGradient id="paint10_linear_1_2" x1="655.61" y1="270.172" x2="439.61" y2="270.172" gradientUnits="userSpaceOnUse">
<stop stop-color="#6E89CF"/>
<stop offset="1" stop-color="#6CB6FB"/>
</linearGradient>
<linearGradient id="paint11_linear_1_2" x1="367.081" y1="333.172" x2="173.081" y2="333.172" gradientUnits="userSpaceOnUse">
<stop stop-color="#6E89CF"/>
<stop offset="1" stop-color="#6CB6FB"/>
</linearGradient>
<linearGradient id="paint12_linear_1_2" x1="416.668" y1="242.172" x2="166.668" y2="242.172" gradientUnits="userSpaceOnUse">
<stop stop-color="#6E89CF"/>
<stop offset="1" stop-color="#6CB6FB"/>
</linearGradient>
<linearGradient id="paint13_linear_1_2" x1="251.716" y1="372.229" x2="87" y2="372.229" gradientUnits="userSpaceOnUse">
<stop stop-color="#6E89CF"/>
<stop offset="1" stop-color="#ABD7FF"/>
</linearGradient>
<linearGradient id="paint14_linear_1_2" x1="370.135" y1="416.373" x2="236" y2="416.373" gradientUnits="userSpaceOnUse">
<stop stop-color="#6E89CF"/>
<stop offset="1" stop-color="#ABD7FF"/>
</linearGradient>
<linearGradient id="paint15_linear_1_2" x1="217.135" y1="281.373" x2="83" y2="281.373" gradientUnits="userSpaceOnUse">
<stop stop-color="#6E89CF"/>
<stop offset="1" stop-color="#85C5FF"/>
</linearGradient>
<linearGradient id="paint16_linear_1_2" x1="307.135" y1="408.373" x2="173" y2="408.373" gradientUnits="userSpaceOnUse">
<stop stop-color="#6E89CF"/>
<stop offset="1" stop-color="#85C5FF"/>
</linearGradient>
<linearGradient id="paint17_linear_1_2" x1="152.095" y1="359.373" x2="52" y2="359.373" gradientUnits="userSpaceOnUse">
<stop stop-color="#6E89CF"/>
<stop offset="1" stop-color="#85C5FF"/>
</linearGradient>
<linearGradient id="paint18_linear_1_2" x1="216.135" y1="440.373" x2="82" y2="440.373" gradientUnits="userSpaceOnUse">
<stop stop-color="#6E89CF"/>
<stop offset="1" stop-color="#85C5FF"/>
</linearGradient>
<linearGradient id="paint19_linear_1_2" x1="140.135" y1="275.373" x2="6" y2="275.373" gradientUnits="userSpaceOnUse">
<stop stop-color="#6E89CF"/>
<stop offset="1" stop-color="#85C5FF"/>
</linearGradient>
<linearGradient id="paint20_linear_1_2" x1="565" y1="43" x2="519" y2="133" gradientUnits="userSpaceOnUse">
<stop stop-color="#7BEFFF" stop-opacity="0.4"/>
<stop offset="1" stop-color="#4E75A3" stop-opacity="0.3"/>
</linearGradient>
<clipPath id="clip0_1_2">
<rect width="700" height="400" fill="white"/>
</clipPath>
<clipPath id="clip1_1_2">
<rect width="242" height="240.838" fill="white" transform="translate(229 56)"/>
</clipPath>
</defs>
</svg>
