<svg width="692" height="867" viewBox="0 0 692 867" fill="none" xmlns="http://www.w3.org/2000/svg">
<path d="M388 122L551.5 209L521 423H388V122Z" fill="#737373"/>
<path d="M149.555 286.033C149.521 284.755 150.098 283.538 151.11 282.757L315.745 155.697C315.915 155.566 316.095 155.449 316.284 155.346L382.14 119.674C384.795 118.236 388.025 120.145 388.045 123.165L390.473 483.939C390.488 486.172 388.672 487.984 386.439 487.966L158.86 486.033C156.706 486.014 154.954 484.295 154.895 482.142L149.555 286.033Z" fill="#0B1F45"/>
<rect width="98.4612" height="50.0436" transform="matrix(0.865272 0.501303 -0.865272 0.501303 303.301 71.5601)" fill="#1B58A0" stroke="black" stroke-width="2"/>
<rect width="98.4657" height="20.0696" transform="matrix(0.865272 0.501303 -2.19541e-08 1 260 96.6613)" fill="#D9D9D9" stroke="black" stroke-width="2"/>
<rect width="98.4657" height="20.0696" transform="matrix(0.865272 0.501303 -2.19541e-08 1 303 51.4905)" fill="#D9D9D9" stroke="black" stroke-width="2"/>
<rect width="98.4612" height="50.0436" transform="matrix(0.865272 0.501303 -0.865272 0.501303 260.301 116.717)" fill="#1B58A0" stroke="black" stroke-width="2"/>
<rect width="98.4657" height="20.0696" transform="matrix(0.865272 0.501303 -2.19541e-08 1 217 141.818)" fill="#D9D9D9" stroke="black" stroke-width="2"/>
<rect width="98.4612" height="50.0436" transform="matrix(0.865272 0.501303 -0.865272 0.501303 217.301 161.873)" fill="#1B58A0" stroke="black" stroke-width="2"/>
<rect width="98.4657" height="20.0696" transform="matrix(0.865272 0.501303 -2.19541e-08 1 174 186.974)" fill="#D9D9D9" stroke="black" stroke-width="2"/>
<rect width="98.4612" height="50.0436" transform="matrix(0.865272 0.501303 -0.865272 0.501303 217.301 161.873)" fill="#1B58A0" stroke="black" stroke-width="2"/>
<rect width="98.4657" height="20.0696" transform="matrix(0.865272 0.501303 -2.19541e-08 1 174 186.974)" fill="#D9D9D9" stroke="black" stroke-width="2"/>
<rect width="98.4612" height="50.0436" transform="matrix(0.865272 0.501303 -0.865272 0.501303 174.301 207.03)" fill="#1B58A0" stroke="black" stroke-width="2"/>
<rect width="98.4657" height="20.0696" transform="matrix(0.865272 0.501303 -2.19541e-08 1 131 232.131)" fill="#D9D9D9" stroke="black" stroke-width="2"/>
<rect width="98.4612" height="50.0436" transform="matrix(0.865272 0.501303 -0.865272 0.501303 131.301 252.187)" fill="#1B58A0" stroke="black" stroke-width="2"/>
<rect width="98.4657" height="20.0696" transform="matrix(0.865272 0.501303 -2.19541e-08 1 88.0001 277.288)" fill="#D9D9D9" stroke="black" stroke-width="2"/>
<rect width="98.9522" height="50.2931" transform="matrix(0.866708 0.498816 -0.866708 0.498816 519.734 276.27)" fill="#1B58A0" stroke="black" stroke-width="2"/>
<rect width="98.9568" height="20.0696" transform="matrix(0.866708 0.498816 -2.21002e-08 1 476.145 301.371)" fill="#D9D9D9" stroke="black" stroke-width="2"/>
<rect width="98.9568" height="20.0696" transform="matrix(0.866708 0.498816 -2.21002e-08 1 519.431 256.2)" fill="#D9D9D9" stroke="black" stroke-width="2"/>
<rect width="98.9522" height="50.2931" transform="matrix(0.866708 0.498816 -0.866708 0.498816 476.448 321.427)" fill="#1B58A0" stroke="black" stroke-width="2"/>
<rect width="98.9568" height="20.0696" transform="matrix(0.866708 0.498816 -2.21002e-08 1 432.859 346.528)" fill="#D9D9D9" stroke="black" stroke-width="2"/>
<rect width="98.9522" height="50.2931" transform="matrix(0.866708 0.498816 -0.866708 0.498816 433.162 366.583)" fill="#1B58A0" stroke="black" stroke-width="2"/>
<rect width="98.9568" height="20.0696" transform="matrix(0.866708 0.498816 -2.21002e-08 1 389.572 391.684)" fill="#D9D9D9" stroke="black" stroke-width="2"/>
<rect width="98.9568" height="20.0696" transform="matrix(0.866708 0.498816 -2.21002e-08 1 389.572 391.684)" fill="#D9D9D9" stroke="black" stroke-width="2"/>
<rect width="98.9522" height="50.2931" transform="matrix(0.866708 0.498816 -0.866708 0.498816 389.876 411.74)" fill="#1B58A0" stroke="black" stroke-width="2"/>
<rect width="98.9568" height="20.0696" transform="matrix(0.866708 0.498816 -2.21002e-08 1 346.286 436.841)" fill="#D9D9D9" stroke="black" stroke-width="2"/>
<rect width="103.078" height="50.2931" transform="matrix(0.866708 0.498816 -0.866708 0.498816 346.589 456.896)" fill="#1B58A0" stroke="black" stroke-width="2"/>
<rect width="101.534" height="20.0696" transform="matrix(0.866708 0.498816 -2.21002e-08 1 303 481.998)" fill="#D9D9D9" stroke="black" stroke-width="2"/>
<rect width="98.4657" height="20.0696" transform="matrix(0.865272 -0.501303 -2.19541e-08 -1 218 551.414)" fill="#D9D9D9" stroke="black" stroke-width="2"/>
<rect width="98.4612" height="50.0436" transform="matrix(0.865272 -0.501303 -0.865272 -0.501303 218.301 531.359)" fill="#1B58A0" stroke="black" stroke-width="2"/>
<rect width="98.4657" height="20.0696" transform="matrix(0.865272 -0.501303 -2.19541e-08 -1 175 506.258)" fill="#D9D9D9" stroke="black" stroke-width="2"/>
<rect width="98.4612" height="50.0436" transform="matrix(0.865272 -0.501303 -0.865272 -0.501303 218.301 531.359)" fill="#1B58A0" stroke="black" stroke-width="2"/>
<rect width="98.4657" height="20.0696" transform="matrix(0.865272 -0.501303 -2.19541e-08 -1 175 506.258)" fill="#D9D9D9" stroke="black" stroke-width="2"/>
<rect width="98.4612" height="50.0436" transform="matrix(0.865272 -0.501303 -0.865272 -0.501303 175.301 486.202)" fill="#1B58A0" stroke="black" stroke-width="2"/>
<rect width="98.4657" height="20.0696" transform="matrix(0.865272 -0.501303 -2.19541e-08 -1 132 461.101)" fill="#D9D9D9" stroke="black" stroke-width="2"/>
<rect width="98.4612" height="50.0436" transform="matrix(0.865272 -0.501303 -0.865272 -0.501303 132.301 441.046)" fill="#1B58A0" stroke="black" stroke-width="2"/>
<rect width="98.4657" height="20.0696" transform="matrix(0.865272 -0.501303 -2.19541e-08 -1 89 415.944)" fill="#D9D9D9" stroke="black" stroke-width="2"/>
<rect width="98.6153" height="102.595" rx="2" transform="matrix(0.865272 0.501303 -0.865272 0.501303 89.7727 295.926)" fill="#1B58A0" stroke="black" stroke-width="2"/>
<rect width="98.4612" height="50.0436" transform="matrix(-0.865272 0.501303 0.865272 0.501303 472.801 71.5601)" fill="#1B58A0" stroke="black" stroke-width="2"/>
<rect width="98.4657" height="20.0696" transform="matrix(-0.865272 0.501303 2.19541e-08 1 516.102 96.6613)" fill="#D9D9D9" stroke="black" stroke-width="2"/>
<rect width="98.4657" height="20.0696" transform="matrix(-0.865272 0.501303 2.19541e-08 1 473.102 51.4905)" fill="#D9D9D9" stroke="black" stroke-width="2"/>
<rect width="98.4612" height="50.0436" transform="matrix(-0.865272 0.501303 0.865272 0.501303 515.801 116.717)" fill="#1B58A0" stroke="black" stroke-width="2"/>
<rect width="98.4657" height="20.0696" transform="matrix(-0.865272 0.501303 2.19541e-08 1 559.102 141.818)" fill="#D9D9D9" stroke="black" stroke-width="2"/>
<rect width="98.4612" height="50.0436" transform="matrix(-0.865272 0.501303 0.865272 0.501303 558.801 161.873)" fill="#1B58A0" stroke="black" stroke-width="2"/>
<rect width="98.4657" height="20.0696" transform="matrix(-0.865272 0.501303 2.19541e-08 1 602.102 186.974)" fill="#D9D9D9" stroke="black" stroke-width="2"/>
<rect width="98.4612" height="50.0436" transform="matrix(-0.865272 0.501303 0.865272 0.501303 558.801 161.873)" fill="#1B58A0" stroke="black" stroke-width="2"/>
<rect width="98.4657" height="20.0696" transform="matrix(-0.865272 0.501303 2.19541e-08 1 602.102 186.974)" fill="#D9D9D9" stroke="black" stroke-width="2"/>
<rect width="98.6153" height="102.595" rx="2" transform="matrix(-0.865272 0.501303 0.865272 0.501303 602.329 207.03)" fill="#1B58A0" stroke="black" stroke-width="2"/>
<rect width="98.6153" height="102.595" rx="2" transform="matrix(-0.865272 0.501303 0.865272 0.501303 303.329 501.05)" fill="#1B58A0" stroke="black" stroke-width="2"/>
<rect width="99.2667" height="99.2229" rx="2" transform="matrix(-0.865272 0.501303 0.865272 0.501303 388.247 1)" fill="#1B58A0" stroke="black" stroke-width="2"/>
<path d="M1 1579V347.702L89.5 395.869V415.939L132 441.026V461.096L175 485.681V506.252L219 531.339V550.405L309 600.579V2157.5L1 1579Z" fill="#C2EFFD" stroke="black" stroke-width="2"/>
<path d="M690 435V257.5L605.5 306V324.5L562 349.5V369.5L519 394V414L475.5 439V459.5L432.5 485V504.5L391 531.5V551L310 598L290 2121.5L690 1112.5V435Z" fill="#29435C" stroke="black"/>
<path d="M388 121L390 412" stroke="black"/>
</svg>
